<?xml version="1.0" encoding="utf-8"?>
<!-- Generator: Adobe Illustrator 25.3.1, SVG Export Plug-In . SVG Version: 6.00 Build 0)  -->
<svg version="1.1" id="svg1" xmlns:svg="http://www.w3.org/2000/svg"
	 xmlns="http://www.w3.org/2000/svg" xmlns:xlink="http://www.w3.org/1999/xlink" x="0px" y="0px" viewBox="0 0 1699.3 2256.6"
	 style="enable-background:new 0 0 1699.3 2256.6;" xml:space="preserve">
<style type="text/css">
	.st0{fill:none;stroke:#CA6D33;stroke-width:4.7698;}
	.st1{fill:none;stroke:#D36E26;stroke-width:3.8158;}
	.st2{fill:none;stroke:#D36E26;stroke-width:3.151;}
	.st3{fill:none;stroke:#D36E26;stroke-width:4.528;}
	.st4{fill:none;stroke:#D36E26;stroke-width:3.0489;}
	.st5{font-family:'ArialMT';}
	.st6{font-size:24px;}
	.st7{fill:none;stroke:#D36E26;stroke-width:2.8619;}
	.st8{fill:none;stroke:#050505;stroke-width:4.8777;}
	.st9{fill:none;stroke:#050505;stroke-width:4.5432;}
	.st10{fill:none;stroke:#050505;stroke-width:2.9377;}
	.st11{fill:none;stroke:#050505;stroke-width:3.8158;}
	.st12{fill:none;stroke:#050505;stroke-width:0.9159;}
	.st13{fill:none;stroke:#050505;stroke-width:2.4684;}
	.st14{fill:none;stroke:#050505;stroke-width:1.5662;}
	.st15{fill:none;stroke:#050505;stroke-width:2.6073;}
	.st16{fill:none;stroke:#050505;stroke-width:1.983;}
	.st17{fill:none;stroke:#050505;stroke-width:1.2745;}
	.st18{fill:none;stroke:#050505;stroke-width:1.4353;}
	.st19{fill:none;stroke:#050505;stroke-width:2.0154;}
	.st20{fill:none;stroke:#050505;stroke-width:5.7237;}
	.st21{fill:none;stroke:#050505;stroke-width:6.1926;}
	.st22{fill:url(#path4-9_1_);}
	.st23{fill:none;stroke:#050505;stroke-width:2.4712;}
	.st24{fill:none;stroke:#050505;stroke-width:1.9079;}
	.st25{fill:none;stroke:#000000;stroke-width:0.954;}
	.st26{fill:#FFFFFF;}
	.st27{fill:#050505;stroke:#050505;stroke-width:1.0096;stroke-dasharray:1.0096,1.0096;}
	.st28{fill:#050505;stroke:#050505;stroke-width:1.107;stroke-dasharray:1.107,1.107;}
	.st29{fill:none;stroke:#949494;stroke-width:3.3438;}
	.st30{fill:none;stroke:#949494;stroke-width:3.1145;}
	.st31{fill:none;stroke:#949494;stroke-width:2.0138;}
	.st32{fill:none;stroke:#949494;stroke-width:2.6158;}
	.st33{fill:none;stroke:#949494;stroke-width:0.6279;}
	.st34{fill:none;stroke:#949494;stroke-width:1.6921;}
	.st35{fill:none;stroke:#949494;stroke-width:1.0737;}
	.st36{fill:none;stroke:#949494;stroke-width:1.7874;}
	.st37{fill:none;stroke:#949494;stroke-width:1.3594;}
	.st38{fill:none;stroke:#949494;stroke-width:0.8737;}
	.st39{fill:none;stroke:#949494;stroke-width:0.9839;}
	.st40{fill:none;stroke:#949494;stroke-width:1.3816;}
	.st41{fill:none;stroke:#949494;stroke-width:3.9237;}
	.st42{fill:none;stroke:#949494;stroke-width:4.2452;}
	.st43{fill:url(#path4-9-1_1_);stroke:#949494;stroke-width:0.466;stroke-miterlimit:1.3842;}
	.st44{fill:none;stroke:#949494;stroke-width:1.694;}
	.st45{fill:none;stroke:#949494;stroke-width:1.3079;}
	.st46{fill:none;stroke:#949494;stroke-width:0.654;}
	.st47{fill:#FFFFFF;stroke:#949494;stroke-width:0.3461;}
	.st48{fill:#050505;stroke:#949494;stroke-width:0.6921;stroke-dasharray:0.6921,0.6921;}
	.st49{fill:#050505;stroke:#949494;stroke-width:0.7589;stroke-dasharray:0.7589,0.7589;}
	.st50{fill:url(#path4-9-1-9_1_);stroke:#949494;stroke-width:0.466;stroke-miterlimit:1.3842;}
	.st51{fill:url(#path4-9-5_1_);stroke:#949494;stroke-width:0.466;stroke-miterlimit:1.3842;}
	.st52{fill:url(#path4-9-3_1_);stroke:#949494;stroke-width:0.466;stroke-miterlimit:1.3842;}
	.st53{fill:none;}
	.st54{fill-rule:evenodd;clip-rule:evenodd;}
</style>
<g>
	<defs>
		<rect id="SVGID_1_" x="252.6" y="1417.4" width="1249.3" height="838.1"/>
	</defs>
	<clipPath id="SVGID_2_">
		<use xlink:href="#SVGID_1_"  style="overflow:visible;"/>
	</clipPath>
	<g style="clip-path:url(#SVGID_2_);">
		
			<image style="overflow:visible;" width="2898" height="1944" xlink:href="2112C1B95728A298.jpg"  transform="matrix(0.4311 0 0 0.4311 252.6216 1417.4004)">
		</image>
	</g>
</g>
<rect id="rect2" x="1003.8" y="655.6" class="st0" width="142.9" height="184"/>
<path id="path4" class="st1" d="M1001.3,731.9c-58,0-58,0-58,0"/>
<path id="path4-1" class="st1" d="M1300.5,900.2c-359.9,0-359.9,0-359.9,0"/>
<path id="path4-1-7" class="st1" d="M1556.4,930c-155.2,0-155.2,0-155.2,0"/>
<path id="path4-3" class="st1" d="M1555.8,645.6c-260.7,0-260.7,0-260.7,0"/>
<path id="path4-3-9" class="st1" d="M1556.8,732.7c-192.2,0-192.2,0-192.2,0"/>
<path id="path4-4" class="st1" d="M1028.1,535.5c-79.8,0-79.8,0-79.8,0"/>
<path id="path4-5" class="st1" d="M1556.4,816c-229.8,0-229.8,0-229.8,0"/>
<path id="path4-5-3" class="st2" d="M383,699.7c-148.4,0-148.4,0-148.4,0"/>
<path id="path4-5-3-5" class="st1" d="M351.5,823.1c-197.9,0-197.9,0-197.9,0"/>
<path id="path4-5-0" class="st3" d="M1328.8,779.4c0,37,0,37,0,37"/>
<path id="path4-5-0-0" class="st1" d="M234.1,698.5c0,327.2,0,327.2,0,327.2"/>
<path id="path4-5-0-0-5" class="st4" d="M154.5,822.1c0,205,0,205,0,205"/>
<path id="path4-5-0-1" class="st1" d="M385.2,484c0,37,0,37,0,37"/>
<rect id="rect5" x="1028" y="481.4" class="st1" width="111.2" height="120.7"/>
<rect id="rect6" x="1291.7" y="727.6" class="st1" width="57.2" height="49.2"/>
<text transform="matrix(1 0 0 1 888.8044 722.4185)" class="st5 st6">  B</text>
<text transform="matrix(1 0 0 1 864.3613 752.2934)" class="st5 st6">Camera</text>
<circle id="path11" class="st7" cx="908.7" cy="714.7" r="17.2"/>
<path id="path4-7" class="st1" d="M126.7,755.5c-50.5,0-50.5,0-50.5,0"/>
<text transform="matrix(1 0 0 1 25.1907 749.1248)" class="st5 st6">  B</text>
<text transform="matrix(1 0 0 1 0.7476 778.9997)" class="st5 st6">Camera</text>
<circle id="path11-5" class="st7" cx="45.1" cy="741.4" r="17.2"/>
<text transform="matrix(1 0 0 1 890.8416 891.2889)" class="st5 st6">  C</text>
<text transform="matrix(1 0 0 1 875.4849 921.1638)" class="st5 st6">Mirror</text>
<circle id="path11-6" class="st7" cx="910.8" cy="883.6" r="17.2"/>
<text transform="matrix(1 0 0 1 132.168 1051.3083)" class="st5 st6">  C</text>
<text transform="matrix(1 0 0 1 102.2249 1083.2024)" class="st5 st6">Mirror</text>
<circle id="path11-6-7" class="st7" cx="154.1" cy="1043.6" r="17.2"/>
<text transform="matrix(1 0 0 1 1581.6882 922.6567)" class="st5 st6">  G</text>
<text transform="matrix(1 0 0 1 1572.2479 956.3235)" class="st5 st6">Wheel</text>
<circle id="path11-6-3" class="st7" cx="1602.8" cy="915" r="17.2"/>
<path id="path4-1-7-3" class="st1" d="M667.4,848.7c-253.7,0-253.7,0-253.7,0"/>
<text transform="matrix(1 0 0 1 679.5308 841.3742)" class="st5 st6">  G</text>
<text transform="matrix(1 0 0 1 670.0904 875.041)" class="st5 st6">Wheel</text>
<circle id="path11-6-3-5" class="st7" cx="700.7" cy="833.7" r="17.2"/>
<text transform="matrix(1 0 0 1 889.8322 532.239)" class="st5 st6">  A</text>
<text transform="matrix(1 0 0 1 865.389 562.114)" class="st5 st6">IR light</text>
<circle id="path11-1" class="st7" cx="909.7" cy="524.5" r="17.2"/>
<path id="path4-4-9" class="st1" d="M126.7,658.6c-50.5,0-50.5,0-50.5,0"/>
<text transform="matrix(1 0 0 1 25.0605 641.7611)" class="st5 st6">  A</text>
<text transform="matrix(1 0 0 1 -2.2382 681.6305)" class="st5 st6">IR light</text>
<circle id="path11-1-2" class="st7" cx="46.4" cy="635.5" r="17.2"/>
<text transform="matrix(1 0 0 1 1581.6882 633.2788)" class="st5 st6">  J</text>
<text transform="matrix(1 0 0 1 1554.4766 663.868)" class="st5 st6">LCD Screens</text>
<circle id="path11-1-5" class="st7" cx="1602.8" cy="626.3" r="17.2"/>
<text transform="matrix(1 0 0 1 365.2181 451.2504)" class="st5 st6">  J</text>
<text transform="matrix(1 0 0 1 338.0064 481.8395)" class="st5 st6">LCD Screens</text>
<circle id="path11-1-5-8" class="st7" cx="386.4" cy="444.3" r="17.2"/>
<text transform="matrix(1 0 0 1 1581.6882 804.3505)" class="st5 st6">  D</text>
<text transform="matrix(1 0 0 1 1548.9664 835.7421)" class="st5 st6">Dual Port Lick</text>
<text transform="matrix(1 0 0 1 1568.9762 865.7421)" class="st5 st6"> Dectector</text>
<circle id="path11-4" class="st7" cx="1602.8" cy="798" r="17.2"/>
<text transform="matrix(1 0 0 1 1581.6882 720.7772)" class="st5 st6">  E</text>
<text transform="matrix(1 0 0 1 1545.9392 749.1353)" class="st5 st6"> Headplate</text>
<text transform="matrix(1 0 0 1 1568.6326 779.1353)" class="st5 st6">Holder</text>
<circle id="path11-4-0" class="st7" cx="1602.8" cy="714.4" r="17.2"/>
<path id="path4-3-9-6" class="st1" d="M382.9,1025c0-92.9,0-92.9,0-92.9"/>
<text transform="matrix(1 0 0 1 362.4333 1049.4413)" class="st5 st6">  E</text>
<text transform="matrix(1 0 0 1 328.957 1082.0006)" class="st5 st6"> Headplate</text>
<text transform="matrix(1 0 0 1 351.6503 1112.0006)" class="st5 st6">Holder</text>
<circle id="path11-4-0-5" class="st7" cx="382.9" cy="1043.6" r="17.2"/>
<rect id="rect3" x="306.7" y="521.1" class="st8" width="146.6" height="24.1"/>
<rect id="rect3-9" x="354.6" y="687" class="st9" width="58.1" height="182.7"/>
<rect id="rect3-9-1" x="458" y="664.9" class="st10" width="21.3" height="82.9"/>
<rect id="rect3-9-1-0" x="516.5" y="929.4" class="st11" width="95.7" height="56.4"/>
<rect id="rect3-9-1-2" x="380" y="671.9" class="st12" width="6.5" height="26.2"/>
<rect id="rect3-9-6" x="133.9" y="712.9" class="st13" width="17.3" height="72.2"/>
<polygon id="rect3-9-6-9" class="st14" points="177.8,650.3 155.4,691 146.1,685.3 168.5,644.7 "/>
<rect id="rect3-9-6-4" x="151.1" y="733.1" class="st15" width="43.3" height="32.1"/>
<rect id="rect3-9-6-4-3" x="420.3" y="762.2" class="st16" width="37" height="21.7"/>
<rect id="rect3-9-6-4-3-8" x="346.3" y="770.1" class="st17" width="73.6" height="4.5"/>
<rect id="rect3-9-6-4-3-8-0" x="371.2" y="672.3" class="st18" width="96.7" height="4.4"/>
<rect id="rect3-9-6-4-0" x="360.9" y="921" class="st19" width="43.9" height="18.9"/>
<rect id="rect3-3" x="490.4" y="527.1" transform="matrix(0.866 -0.5 0.5 0.866 -232.8495 331.6574)" class="st8" width="24.1" height="146.6"/>
<rect id="rect3-7" x="182.6" y="590.3" transform="matrix(0.5 -0.866 0.866 0.5 -393.7349 522.7331)" class="st8" width="146.6" height="24.1"/>
<rect id="rect8" x="129.5" y="496.3" class="st20" width="504.8" height="504.8"/>
<path id="path4-1-7-3-7" class="st1" d="M665.3,783c-203.7,0-203.7,0-203.7,0"/>
<text transform="matrix(1 0 0 1 677.4935 775.649)" class="st5 st6">  H</text>
<text transform="matrix(1 0 0 1 668.053 809.3157)" class="st5 st6">Rotary Encoder</text>
<circle id="path11-6-3-5-9" class="st7" cx="698.6" cy="768" r="17.2"/>
<ellipse id="path8" class="st11" cx="144" cy="657.5" rx="14.5" ry="13.8"/>
<ellipse id="path8-5" class="st21" cx="663" cy="624.8" rx="23" ry="22.8"/>
<ellipse id="path8-5-1" class="st21" cx="663.9" cy="687.1" rx="23" ry="22.8"/>
<radialGradient id="path4-9_1_" cx="-426.9908" cy="2313.5066" r="70.9692" gradientTransform="matrix(0.5435 0 0 -0.8501 610.7009 2726.2183)" gradientUnits="userSpaceOnUse">
	<stop  offset="0" style="stop-color:#565759"/>
	<stop  offset="0.58" style="stop-color:#363436"/>
	<stop  offset="1" style="stop-color:#231F20"/>
</radialGradient>
<path id="path4-9" class="st22" d="M397.6,713.7c-2.8,1.5-5.8,2.4-8.8,2.6c-0.1-0.6-0.2-1.1-0.4-1.6c1-0.2,2-0.5,2.9-0.9
	c1.5-0.7,3-1.7,4.3-3c0.1-0.1-0.3-0.5-0.5-0.4c-1.5,1.4-3,2.5-4.7,3.2c-0.7,0.3-1.5,0.5-2.2,0.7c-0.2-0.5-0.5-1-0.8-1.3
	c0-0.1,0-0.3-0.1-0.4c2.2-1.6,4-4,5.5-7c0.1-0.2-0.4-0.3-0.5-0.1c-1.4,2.8-3.1,5.1-5.1,6.7c-0.1-0.3-0.2-0.6-0.3-1
	c1.2-1.8,2.4-3.6,3.5-5.5c0.1-0.2-0.4-0.4-0.5-0.2c-1,1.8-2.1,3.5-3.2,5.1c-0.1-0.2-0.2-0.4-0.3-0.6c0.4-1.1,0.8-2.2,1.2-3.4
	c0.1-0.2-0.5-0.5-0.5-0.3c-0.3,1.1-0.7,2.1-1,3.1c-0.3-0.4-0.6-0.7-1-0.9c0-0.1,0-0.2,0-0.3c0-0.9-0.5-1.6-1.1-1.6
	c-0.6,0-1.1,0.7-1.1,1.6c0,0.1,0,0.2,0,0.3c-0.6,0.4-1.1,0.9-1.5,1.6c-0.5-1.1-0.9-2.3-1.3-3.6c-0.1-0.2-0.5-0.4-0.5-0.2
	c0.4,1.5,0.9,2.9,1.5,4.3c-0.1,0.2-0.2,0.4-0.3,0.6c-1.2-1.8-2.4-3.7-3.5-5.7c-0.1-0.2-0.6-0.1-0.5,0.1c1.3,2.2,2.6,4.3,3.9,6.2
	c-0.1,0.3-0.2,0.6-0.2,0.9c-2.2-1.6-4.2-4.1-5.7-7.1c-0.1-0.2-0.6-0.1-0.5,0c1.6,3.3,3.7,5.8,6.1,7.5l0,0c-0.3,0.3-0.5,0.7-0.7,1.2
	c-0.9-0.2-1.9-0.4-2.8-0.7c-1.8-0.7-3.4-1.7-5-3.2c-0.1-0.1-0.6-0.2-0.3,0.1c1.4,1.3,2.8,2.4,4.4,3.1c1.2,0.5,2.4,0.8,3.6,1.1
	c-0.2,0.5-0.3,0.9-0.4,1.5c-3.3,0-6.5-0.9-9.6-2.6c-0.1-0.1-0.6,0.1-0.4,0.3c3.2,1.7,6.6,2.6,9.9,2.6c0,0.3-0.1,0.6-0.1,0.9v1
	c0,0.5-0.1,1-0.2,1.6c-0.2,1.9-2.6,3.9-3,4.4c-0.7,1-3.5,1.5-3.7,1.8c-1.4,1.8-1.5,3.6-1.4,6c0,1.3,1.4,3.2,2.7,4.6
	c0.9,0.9,2,1.2,3,0.9c1.9-0.7,1.1-2.8,1.6-1.4c0.6,1.7,0.7,3.7,0.4,5.5c-0.4,1.8-2.3,8.3-2.9,10.4c-2.7,9.7-4.3,15.3-4.3,17.6
	c0.1,2.3,0.3,7.8,1.4,11.1c1.2,3.3,3.1,8.2,5.1,11.4c1.5,2.3,3.4,4.9,4.5,6.4c0.1,0.4,0.1,0.8,0.2,1.1c0,0.7-0.1,1.4-0.4,2
	c-0.4,0.7-0.8,1.3-1.4,1.7c-0.5,0.5-1.1,0.8-1.8,0.9c-0.7,0-1.3-0.1-2-0.3c-1.4-0.7-2.8-1.6-4.1-2.8c-1.4-1.2-2.7-2.4-4.2-3.4
	c-0.8-0.6-1.6-0.9-2.4-1c-0.2,0-0.5,0-0.7,0l-0.5,0.1c-0.4,0.1-0.7,0.2-1.1,0.4c-0.7,0.3-1.4,0.8-2,1.4c-0.6,0.7-1.1,1.5-1.4,2.6
	c-0.5,1.7-0.7,3.6-0.5,5.4c0,0.8,0.1,1.5,0.1,2.1c0,0.6,0,1.1-0.1,1.7c0,0.8-0.2,1.6-0.4,2.3c-0.1,0.2-0.2,0.5-0.3,0.6l0.2,0.4
	c0.2-0.2,0.3-0.4,0.5-0.7c0.3-0.7,0.6-1.6,0.7-2.5c0.1-0.6,0.2-1.2,0.2-1.9c0-0.7,0-1.4,0-2.2c0-1.5,0.2-3.1,0.7-4.4
	c0.6-1.5,1.7-2.4,2.8-2.6c0.3-0.1,0.6-0.2,1-0.2l0.5-0.1c0.1,0,0.3,0,0.4,0c0.6,0.2,1.2,0.5,1.8,1c1.3,1,2.5,2.4,3.9,3.7
	c1.4,1.5,2.9,2.6,4.5,3.6c0.9,0.5,1.8,0.7,2.8,0.6c1-0.1,1.9-0.5,2.8-1.3c0.9-0.6,1.7-1.6,2.3-2.8c0.3-0.7,0.6-1.4,0.8-2.2
	c0.1-0.8,0.2-1.6,0.2-2.4c0.8-1,3.3-4.4,5.2-7.3c2-3.2,3.9-8.1,5.1-11.4c1.2-3.3,1.4-8.7,1.4-11.1c0.1-2.3-1.5-8-4.3-17.6
	c-0.6-2.2-2.4-8.6-2.9-10.4c-0.3-1.9-0.2-3.8,0.4-5.5c0.5-1.3-0.3,0.7,1.6,1.4c1,0.3,2.1-0.1,3-0.9c1.3-1.4,2.6-3.4,2.7-4.6
	c0.1-2.3,0-4.1-1.4-6c-0.2-0.3-3-0.9-3.7-1.8c-0.4-0.6-2.8-2.5-3-4.4c-0.2-1.3-0.3-2.3-0.3-2.9c0-0.1,0-0.2-0.1-0.2
	c0-0.1,0-0.1,0-0.1c3.1-0.2,6.1-1.1,9.1-2.6C398.2,713.8,397.7,713.6,397.6,713.7z"/>
<rect id="rect3-9-9" x="381" y="728" class="st23" width="6.2" height="200.3"/>
<rect id="rect3-9-6-4-0-1" x="377" y="726.6" class="st24" width="14.2" height="3.7"/>
<path id="path10" class="st25" d="M379.6,698c-4,8.3-4,8.3-4,8.3l3.7,0.7l3.8-3.9l4.7,3.9l3.7-0.6l-4.5-8.5l-0.4-0.2"/>
<path id="path2" class="st26" d="M459.6,772.2c162.1-0.7,162.1-0.7,162.1-0.7"/>
<path id="path3" class="st27" d="M456.6,771.5c162.1,0,162.1,0,162.1,0"/>
<path id="path3-0" class="st28" d="M430.7,674.9c195,0,195,0,195,0"/>
<path id="path3-1" class="st27" d="M595.8,946c24.3,0,24.3,0,24.3,0"/>
<path id="path3-1-5" class="st27" d="M595.8,956.3c28.3,0,28.3,0,28.3,0"/>
<path id="path3-1-5-4" class="st27" d="M595.8,967.5c34.1,0,34.1,0,34.1,0"/>
<path id="path3-1-5-7" class="st27" d="M650.6,655.1c13.6,5.8,13.6,5.8,13.6,5.8"/>
<path id="path3-1-5-7-7" class="st27" d="M651,655.5c13.7-5.5,13.7-5.5,13.7-5.5"/>
<path id="path3-1-5-2" class="st27" d="M629.1,655.5c22.3,0,22.3,0,22.3,0"/>
<path id="path3-9" class="st27" d="M619.8,946.8c0-175.3,0-175.3,0-175.3"/>
<path id="path3-9-3" class="st27" d="M624.6,955.9c0-281.3,0-281.3,0-281.3"/>
<path id="path3-9-3-0" class="st27" d="M629.6,967c0-311.8,0-311.8,0-311.8"/>
<rect id="rect3-0" x="1033.1" y="20" class="st29" width="100.5" height="16.5"/>
<rect id="rect3-9-8" x="1065.9" y="133.7" class="st30" width="39.8" height="125.2"/>
<rect id="rect3-9-1-4" x="1136.8" y="118.6" class="st31" width="14.6" height="56.8"/>
<rect id="rect3-9-1-0-6" x="1176.9" y="299.8" class="st32" width="65.6" height="38.6"/>
<rect id="rect3-9-1-2-0" x="1083.3" y="123.3" class="st33" width="4.5" height="18"/>
<rect id="rect3-9-6-7" x="914.6" y="151.5" class="st34" width="11.8" height="49.5"/>
<polygon id="rect3-9-6-9-9" class="st35" points="944.7,108.6 929.3,136.4 923,132.6 938.3,104.7 "/>
<rect id="rect3-9-6-4-8" x="926.4" y="165.3" class="st36" width="29.7" height="22"/>
<rect id="rect3-9-6-4-3-2" x="1110.9" y="185.3" class="st37" width="25.4" height="14.9"/>
<rect id="rect3-9-6-4-3-8-6" x="1060.2" y="190.6" class="st38" width="50.4" height="3.1"/>
<rect id="rect3-9-6-4-3-8-0-8" x="1077.3" y="123.6" class="st39" width="66.3" height="3"/>
<rect id="rect3-9-6-4-0-16" x="1070.2" y="294.1" class="st40" width="30.1" height="13"/>
<rect id="rect3-3-7" x="1159" y="24" transform="matrix(0.866 -0.5 0.5 0.866 119.2378 593.5718)" class="st29" width="16.5" height="100.5"/>
<rect id="rect3-7-3" x="947.9" y="67.4" transform="matrix(0.5 -0.866 0.866 0.5 433.5541 902.2767)" class="st29" width="100.5" height="16.5"/>
<rect id="rect8-9" x="911.6" y="3" class="st41" width="346.1" height="346.1"/>
<ellipse id="path8-2" class="st32" cx="921.5" cy="113.5" rx="9.9" ry="9.4"/>
<ellipse id="path8-5-3" class="st42" cx="1277.3" cy="91" rx="15.8" ry="15.7"/>
<ellipse id="path8-5-1-1" class="st42" cx="1277.9" cy="133.7" rx="15.8" ry="15.7"/>
<radialGradient id="path4-9-1_1_" cx="-892.8708" cy="2694.4927" r="70.9692" gradientTransform="matrix(0.3726 0 0 -0.5827 1415.0331 1753.6538)" gradientUnits="userSpaceOnUse">
	<stop  offset="0" style="stop-color:#565759"/>
	<stop  offset="0.58" style="stop-color:#363436"/>
	<stop  offset="1" style="stop-color:#231F20"/>
</radialGradient>
<path id="path4-9-1" class="st43" d="M1095.3,152c-2,1-4,1.6-6,1.7c0-0.4-0.1-0.7-0.2-1.1c0.7-0.1,1.3-0.4,2-0.6c1-0.5,2-1.2,2.9-2
	c0.1-0.1-0.2-0.3-0.3-0.2c-1,1-2.1,1.7-3.2,2.2c-0.5,0.2-1,0.3-1.5,0.5c-0.1-0.4-0.3-0.7-0.6-0.9c0-0.1,0-0.2-0.1-0.3
	c1.5-1.1,2.8-2.8,3.8-4.8c0.1-0.1-0.3-0.2-0.4-0.1c-0.9,1.9-2.1,3.5-3.5,4.6c-0.1-0.2-0.1-0.4-0.2-0.7c0.8-1.2,1.6-2.5,2.4-3.8
	c0.1-0.1-0.3-0.3-0.4-0.1c-0.7,1.2-1.4,2.4-2.2,3.5c-0.1-0.1-0.1-0.3-0.2-0.4c0.3-0.8,0.6-1.5,0.8-2.3c0-0.1-0.3-0.3-0.4-0.2
	c-0.2,0.7-0.5,1.4-0.7,2.1c-0.2-0.3-0.4-0.5-0.7-0.6c0-0.1,0-0.1,0-0.2c0-0.6-0.3-1.1-0.7-1.1c-0.4,0-0.7,0.5-0.7,1.1
	c0,0.1,0,0.1,0,0.2c-0.4,0.2-0.7,0.6-1,1.1c-0.3-0.8-0.6-1.6-0.9-2.5c0-0.2-0.4-0.2-0.4-0.1c0.3,1,0.6,2,1,2.9
	c-0.1,0.1-0.1,0.3-0.2,0.4c-0.8-1.3-1.6-2.6-2.4-3.9c-0.1-0.1-0.4-0.1-0.3,0.1c0.9,1.5,1.8,2.9,2.7,4.2c-0.1,0.2-0.1,0.4-0.2,0.6
	c-1.5-1.1-2.9-2.8-3.9-4.9c-0.1-0.1-0.4-0.1-0.4,0c1.1,2.2,2.6,4,4.2,5.2l0,0c-0.2,0.2-0.4,0.5-0.5,0.8c-0.6-0.2-1.3-0.3-1.9-0.5
	c-1.2-0.4-2.4-1.2-3.4-2.2c-0.1-0.1-0.4-0.1-0.2,0.1c0.9,0.9,2,1.6,3,2.1c0.8,0.3,1.6,0.6,2.5,0.7c-0.1,0.3-0.2,0.6-0.3,1
	c-2.2,0-4.5-0.6-6.6-1.7c-0.1,0-0.4,0.1-0.3,0.2c2.2,1.2,4.5,1.8,6.8,1.8c0,0.2,0,0.4,0,0.6v0.7c0,0.3-0.1,0.7-0.1,1.1
	c-0.2,1.3-1.8,2.6-2.1,3c-0.5,0.7-2.4,1.1-2.5,1.3c-1,1.2-1,2.5-1,4.1c0,0.9,0.9,2.2,1.8,3.2c0.6,0.6,1.3,0.8,2.1,0.6
	c1.3-0.5,0.7-1.9,1.1-1c0.4,1.2,0.5,2.5,0.3,3.8c-0.3,1.2-1.6,5.7-2,7.2c-1.9,6.6-3,10.5-2.9,12.1c0,1.6,0.2,5.3,1,7.6
	c0.8,2.3,2.1,5.6,3.5,7.8c1,1.6,2.3,3.3,3.1,4.4c0.1,0.3,0.1,0.5,0.1,0.8c0,0.5-0.1,1-0.2,1.4c-0.3,0.5-0.6,0.9-0.9,1.2
	c-0.4,0.3-0.8,0.6-1.2,0.6c-0.5,0-0.9,0-1.3-0.2c-1-0.5-1.9-1.1-2.8-1.9c-0.9-0.8-1.9-1.6-2.9-2.3c-0.5-0.4-1.1-0.6-1.7-0.7
	c-0.2,0-0.3,0-0.5,0l-0.4,0.1c-0.3,0.1-0.5,0.2-0.7,0.3c-0.5,0.2-1,0.5-1.4,1c-0.4,0.4-0.8,1-1,1.7c-0.3,1.2-0.5,2.5-0.4,3.7
	c0,0.5,0.1,1,0.1,1.4c0,0.4,0,0.8,0,1.2c0,0.5-0.1,1.1-0.3,1.6c-0.1,0.2-0.1,0.3-0.2,0.4l0.1,0.3c0.1-0.1,0.2-0.3,0.3-0.5
	c0.2-0.5,0.4-1.1,0.5-1.7c0.1-0.4,0.1-0.9,0.1-1.3c0-0.5,0-1,0-1.5c0-1.1,0.1-2.1,0.5-3c0.4-1,1.1-1.6,1.9-1.8
	c0.2-0.1,0.4-0.1,0.7-0.2l0.4,0c0.1,0,0.2,0,0.3,0c0.4,0.1,0.8,0.4,1.2,0.7c0.9,0.7,1.7,1.6,2.7,2.5c1,1,2,1.8,3.1,2.4
	c0.6,0.3,1.3,0.5,1.9,0.4c0.7-0.1,1.3-0.4,1.9-0.9c0.6-0.4,1.1-1.1,1.6-1.9c0.2-0.5,0.4-1,0.5-1.5c0.1-0.5,0.1-1.1,0.1-1.6
	c0.5-0.7,2.3-3,3.6-5c1.4-2.2,2.7-5.5,3.5-7.8s0.9-6,1-7.6c0-1.6-1.1-5.5-2.9-12.1c-0.4-1.5-1.7-5.9-2-7.1c-0.2-1.3-0.1-2.6,0.3-3.8
	c0.4-0.9-0.2,0.5,1.1,1c0.7,0.2,1.4,0,2-0.6c0.9-1,1.8-2.3,1.8-3.2c0.1-1.6,0-2.8-1-4.1c-0.2-0.2-2.1-0.6-2.5-1.3
	c-0.3-0.4-1.9-1.7-2.1-3c-0.1-0.9-0.2-1.6-0.2-2c0-0.1,0-0.1,0-0.2c0,0,0-0.1,0-0.1c2.1-0.1,4.2-0.7,6.2-1.8
	C1095.7,152.1,1095.4,151.9,1095.3,152z"/>
<rect id="rect3-9-9-2" x="1084" y="161.8" class="st44" width="4.3" height="137.3"/>
<rect id="rect3-9-6-4-0-1-9" x="1081.3" y="160.8" class="st45" width="9.7" height="2.5"/>
<path id="path10-6" class="st46" d="M1083,141.3c-2.8,5.7-2.8,5.7-2.8,5.7l2.5,0.5l2.6-2.6l3.2,2.6l2.5-0.4l-3.1-5.8l-0.3-0.1"/>
<path id="path2-1" class="st47" d="M1137.9,192.1c111.2-0.5,111.2-0.5,111.2-0.5"/>
<path id="path3-06" class="st48" d="M1135.8,191.6c111.2,0,111.2,0,111.2,0"/>
<path id="path3-0-1" class="st49" d="M1118.1,125.4c133.6,0,133.6,0,133.6,0"/>
<path id="path3-1-57" class="st48" d="M1231.2,311.2c16.7,0,16.7,0,16.7,0"/>
<path id="path3-1-5-27" class="st48" d="M1231.2,318.3c19.4,0,19.4,0,19.4,0"/>
<path id="path3-1-5-4-1" class="st48" d="M1231.2,326c23.4,0,23.4,0,23.4,0"/>
<path id="path3-1-5-7-4" class="st48" d="M1268.8,111.8c9.3,4,9.3,4,9.3,4"/>
<path id="path3-1-5-7-7-9" class="st48" d="M1269.1,112.1c9.4-3.8,9.4-3.8,9.4-3.8"/>
<path id="path3-1-5-2-4" class="st48" d="M1254.1,112.1c15.3,0,15.3,0,15.3,0"/>
<path id="path3-9-1" class="st48" d="M1247.7,311.8c0-120.1,0-120.1,0-120.1"/>
<path id="path3-9-3-1" class="st48" d="M1251,318.1c0-192.8,0-192.8,0-192.8"/>
<path id="path3-9-3-0-8" class="st48" d="M1254.4,325.7c0-213.8,0-213.8,0-213.8"/>
<rect id="rect3-0-5" x="1436.6" y="19.3" class="st29" width="100.5" height="16.5"/>
<rect id="rect3-9-8-0" x="1469.3" y="133" class="st30" width="39.8" height="125.2"/>
<rect id="rect3-9-1-4-0" x="1540.3" y="117.8" class="st31" width="14.6" height="56.8"/>
<rect id="rect3-9-1-0-6-4" x="1580.4" y="299.1" class="st32" width="65.6" height="38.6"/>
<rect id="rect3-9-1-2-0-4" x="1486.8" y="122.6" class="st33" width="4.5" height="18"/>
<rect id="rect3-9-6-7-3" x="1318.1" y="150.7" class="st34" width="11.8" height="49.5"/>
<polygon id="rect3-9-6-9-9-7" class="st35" points="1348.1,107.8 1332.8,135.7 1326.5,131.8 1341.8,104 "/>
<rect id="rect3-9-6-4-8-8" x="1329.9" y="164.6" class="st36" width="29.7" height="22"/>
<rect id="rect3-9-6-4-3-2-9" x="1514.4" y="184.5" class="st37" width="25.4" height="14.9"/>
<rect id="rect3-9-6-4-3-8-6-6" x="1463.6" y="189.9" class="st38" width="50.4" height="3.1"/>
<rect id="rect3-9-6-4-3-8-0-8-1" x="1480.8" y="122.9" class="st39" width="66.3" height="3"/>
<rect id="rect3-9-6-4-0-16-4" x="1473.7" y="293.4" class="st40" width="30.1" height="13"/>
<rect id="rect3-3-7-7" x="1562.5" y="23.3" transform="matrix(0.866 -0.5 0.5 0.866 173.6617 795.2191)" class="st29" width="16.5" height="100.5"/>
<rect id="rect3-7-3-2" x="1351.4" y="66.7" transform="matrix(0.5 -0.866 0.866 0.5 635.9342 1251.3435)" class="st29" width="100.5" height="16.5"/>
<rect id="rect8-9-3" x="1315.1" y="2.3" class="st41" width="346.1" height="346.1"/>
<ellipse id="path8-2-4" class="st32" cx="1325" cy="112.8" rx="9.9" ry="9.4"/>
<ellipse id="path8-5-3-7" class="st42" cx="1680.8" cy="90.3" rx="15.8" ry="15.7"/>
<ellipse id="path8-5-1-1-8" class="st42" cx="1681.4" cy="133" rx="15.8" ry="15.7"/>
<radialGradient id="path4-9-1-9_1_" cx="-892.8708" cy="2694.4927" r="70.9692" gradientTransform="matrix(0.3726 0 0 -0.5827 1818.5237 1752.9209)" gradientUnits="userSpaceOnUse">
	<stop  offset="0" style="stop-color:#565759"/>
	<stop  offset="0.58" style="stop-color:#363436"/>
	<stop  offset="1" style="stop-color:#231F20"/>
</radialGradient>
<path id="path4-9-1-9" class="st50" d="M1498.8,151.3c-2,1-4,1.6-6,1.7c0-0.4-0.1-0.7-0.2-1.1c0.7-0.1,1.3-0.4,2-0.6
	c1-0.5,2-1.2,2.9-2c0.1-0.1-0.2-0.3-0.3-0.2c-1,1-2.1,1.7-3.2,2.2c-0.5,0.2-1,0.3-1.5,0.5c-0.1-0.4-0.3-0.7-0.6-0.9
	c0-0.1,0-0.2-0.1-0.3c1.5-1.1,2.8-2.8,3.8-4.8c0.1-0.1-0.3-0.2-0.4-0.1c-0.9,1.9-2.1,3.5-3.5,4.6c-0.1-0.2-0.1-0.4-0.2-0.7
	c0.8-1.2,1.6-2.5,2.4-3.8c0.1-0.1-0.3-0.3-0.4-0.1c-0.7,1.2-1.4,2.4-2.2,3.5c-0.1-0.1-0.1-0.3-0.2-0.4c0.3-0.8,0.6-1.5,0.8-2.3
	c0-0.1-0.3-0.3-0.4-0.2c-0.2,0.7-0.5,1.4-0.7,2.1c-0.2-0.3-0.4-0.5-0.7-0.6c0-0.1,0-0.1,0-0.2c0-0.6-0.3-1.1-0.7-1.1
	c-0.4,0-0.7,0.5-0.7,1.1c0,0.1,0,0.1,0,0.2c-0.4,0.2-0.7,0.6-1,1.1c-0.3-0.8-0.6-1.6-0.9-2.5c0-0.2-0.4-0.2-0.4-0.1
	c0.3,1,0.6,2,1,2.9c-0.1,0.1-0.1,0.3-0.2,0.4c-0.8-1.3-1.6-2.6-2.4-3.9c-0.1-0.1-0.4-0.1-0.3,0.1c0.9,1.5,1.8,2.9,2.7,4.2
	c-0.1,0.2-0.1,0.4-0.2,0.6c-1.5-1.1-2.9-2.8-3.9-4.9c-0.1-0.1-0.4-0.1-0.4,0c1.1,2.2,2.6,4,4.2,5.2l0,0c-0.2,0.2-0.4,0.5-0.5,0.8
	c-0.6-0.2-1.3-0.3-1.9-0.5c-1.2-0.4-2.4-1.2-3.4-2.2c-0.1-0.1-0.4-0.1-0.2,0.1c0.9,0.9,2,1.6,3,2.1c0.8,0.3,1.6,0.6,2.5,0.7
	c-0.1,0.3-0.2,0.6-0.3,1c-2.2,0-4.5-0.6-6.6-1.7c-0.1,0-0.4,0.1-0.3,0.2c2.2,1.2,4.5,1.8,6.8,1.8c0,0.2,0,0.4,0,0.6v0.7
	c0,0.3-0.1,0.7-0.1,1.1c-0.2,1.3-1.8,2.6-2.1,3c-0.5,0.7-2.4,1.1-2.5,1.3c-1,1.2-1,2.5-1,4.1c0,0.9,0.9,2.2,1.8,3.2
	c0.6,0.6,1.3,0.8,2.1,0.6c1.3-0.5,0.7-1.9,1.1-1c0.4,1.2,0.5,2.5,0.3,3.8c-0.3,1.2-1.6,5.7-2,7.2c-1.9,6.6-3,10.5-2.9,12.1
	c0,1.6,0.2,5.3,1,7.6c0.8,2.3,2.1,5.6,3.5,7.8c1,1.6,2.3,3.3,3.1,4.4c0.1,0.3,0.1,0.5,0.1,0.8c0,0.5-0.1,1-0.2,1.4
	c-0.3,0.5-0.6,0.9-0.9,1.2c-0.4,0.3-0.8,0.6-1.2,0.6c-0.5,0-0.9,0-1.3-0.2c-1-0.5-1.9-1.1-2.8-1.9c-0.9-0.8-1.9-1.6-2.9-2.3
	c-0.5-0.4-1.1-0.6-1.7-0.7c-0.2,0-0.3,0-0.5,0l-0.4,0.1c-0.3,0.1-0.5,0.2-0.7,0.3c-0.5,0.2-1,0.5-1.4,1c-0.4,0.4-0.8,1-1,1.7
	c-0.3,1.2-0.5,2.5-0.4,3.7c0,0.5,0.1,1,0.1,1.4c0,0.4,0,0.8,0,1.2c0,0.5-0.1,1.1-0.3,1.6c-0.1,0.2-0.1,0.3-0.2,0.4l0.1,0.3
	c0.1-0.1,0.2-0.3,0.3-0.5c0.2-0.5,0.4-1.1,0.5-1.7c0.1-0.4,0.1-0.9,0.1-1.3c0-0.5,0-1,0-1.5c0-1.1,0.1-2.1,0.5-3
	c0.4-1,1.1-1.6,1.9-1.8c0.2-0.1,0.4-0.1,0.7-0.2l0.4,0c0.1,0,0.2,0,0.3,0c0.4,0.1,0.8,0.4,1.2,0.7c0.9,0.7,1.7,1.6,2.7,2.5
	c1,1,2,1.8,3.1,2.4c0.6,0.3,1.3,0.5,1.9,0.4c0.7-0.1,1.3-0.4,1.9-0.9c0.6-0.4,1.1-1.1,1.6-1.9c0.2-0.5,0.4-1,0.5-1.5
	c0.1-0.5,0.1-1.1,0.1-1.6c0.5-0.7,2.3-3,3.6-5c1.4-2.2,2.7-5.5,3.5-7.8s0.9-6,1-7.6c0-1.6-1.1-5.5-2.9-12.1c-0.4-1.5-1.7-5.9-2-7.1
	c-0.2-1.3-0.1-2.6,0.3-3.8c0.4-0.9-0.2,0.5,1.1,1c0.7,0.2,1.4,0,2-0.6c0.9-1,1.8-2.3,1.8-3.2c0.1-1.6,0-2.8-1-4.1
	c-0.2-0.2-2.1-0.6-2.5-1.3c-0.3-0.4-1.9-1.7-2.1-3c-0.1-0.9-0.2-1.6-0.2-2c0-0.1,0-0.1,0-0.2c0,0,0-0.1,0-0.1
	c2.1-0.1,4.2-0.7,6.2-1.8C1499.2,151.3,1498.9,151.2,1498.8,151.3z"/>
<rect id="rect3-9-9-2-6" x="1487.5" y="161.1" class="st44" width="4.3" height="137.3"/>
<rect id="rect3-9-6-4-0-1-9-4" x="1484.8" y="160.1" class="st45" width="9.7" height="2.5"/>
<path id="path10-6-7" class="st46" d="M1486.5,140.5c-2.8,5.7-2.8,5.7-2.8,5.7l2.5,0.5l2.6-2.6l3.2,2.6l2.5-0.4l-3.1-5.8l-0.3-0.1"
	/>
<path id="path2-1-4" class="st47" d="M1541.3,191.4c111.2-0.5,111.2-0.5,111.2-0.5"/>
<path id="path3-06-9" class="st48" d="M1539.3,190.9c111.2,0,111.2,0,111.2,0"/>
<path id="path3-0-1-8" class="st49" d="M1521.6,124.7c133.6,0,133.6,0,133.6,0"/>
<path id="path3-1-57-5" class="st48" d="M1634.7,310.5c16.7,0,16.7,0,16.7,0"/>
<path id="path3-1-5-27-9" class="st48" d="M1634.7,317.6c19.4,0,19.4,0,19.4,0"/>
<path id="path3-1-5-4-1-3" class="st48" d="M1634.7,325.2c23.4,0,23.4,0,23.4,0"/>
<path id="path3-1-5-7-4-2" class="st48" d="M1672.3,111.1c9.3,4,9.3,4,9.3,4"/>
<path id="path3-1-5-7-7-9-3" class="st48" d="M1672.5,111.4c9.4-3.8,9.4-3.8,9.4-3.8"/>
<path id="path3-1-5-2-4-7" class="st48" d="M1657.6,111.4c15.3,0,15.3,0,15.3,0"/>
<path id="path3-9-1-1" class="st48" d="M1651.2,311.1c0-120.1,0-120.1,0-120.1"/>
<path id="path3-9-3-1-0" class="st48" d="M1654.5,317.3c0-192.8,0-192.8,0-192.8"/>
<path id="path3-9-3-0-8-9" class="st48" d="M1657.9,324.9c0-213.8,0-213.8,0-213.8"/>
<rect id="rect3-6" x="557.6" y="19" class="st29" width="100.5" height="16.5"/>
<rect id="rect3-9-7" x="590.4" y="132.7" class="st30" width="39.8" height="125.2"/>
<rect id="rect3-9-1-9" x="661.3" y="117.5" class="st31" width="14.6" height="56.8"/>
<rect id="rect3-9-1-0-9" x="701.4" y="298.8" class="st32" width="65.6" height="38.6"/>
<rect id="rect3-9-1-2-6" x="607.8" y="122.3" class="st33" width="4.5" height="18"/>
<rect id="rect3-9-6-6" x="439.1" y="150.4" class="st34" width="11.8" height="49.5"/>
<polygon id="rect3-9-6-9-4" class="st35" points="469.2,107.5 453.9,135.4 447.5,131.5 462.8,103.7 "/>
<rect id="rect3-9-6-4-07" x="450.9" y="164.3" class="st36" width="29.7" height="22"/>
<rect id="rect3-9-6-4-3-9" x="635.4" y="184.3" class="st37" width="25.4" height="14.9"/>
<rect id="rect3-9-6-4-3-8-3" x="584.7" y="189.6" class="st38" width="50.4" height="3.1"/>
<rect id="rect3-9-6-4-3-8-0-9" x="601.8" y="122.6" class="st39" width="66.3" height="3"/>
<rect id="rect3-9-6-4-0-7" x="594.7" y="293.1" class="st40" width="30.1" height="13"/>
<rect id="rect3-3-4" x="683.5" y="23" transform="matrix(0.866 -0.5 0.5 0.866 56.0509 355.7011)" class="st29" width="16.5" height="100.5"/>
<rect id="rect3-7-37" x="472.5" y="66.4" transform="matrix(0.5 -0.866 0.866 0.5 196.7105 489.9972)" class="st29" width="100.5" height="16.5"/>
<rect id="rect8-2" x="436.1" y="2" class="st41" width="346.1" height="346.1"/>
<ellipse id="path8-3" class="st32" cx="446" cy="112.5" rx="9.9" ry="9.4"/>
<ellipse id="path8-5-5" class="st42" cx="801.8" cy="90" rx="15.8" ry="15.7"/>
<ellipse id="path8-5-1-4" class="st42" cx="802.4" cy="132.7" rx="15.8" ry="15.7"/>
<radialGradient id="path4-9-5_1_" cx="-892.8708" cy="2694.4927" r="70.9692" gradientTransform="matrix(0.3726 0 0 -0.5827 939.5667 1752.6267)" gradientUnits="userSpaceOnUse">
	<stop  offset="0" style="stop-color:#565759"/>
	<stop  offset="0.58" style="stop-color:#363436"/>
	<stop  offset="1" style="stop-color:#231F20"/>
</radialGradient>
<path id="path4-9-5" class="st51" d="M619.9,151c-2,1-4,1.6-6,1.7c0-0.4-0.1-0.7-0.2-1.1c0.7-0.1,1.3-0.4,2-0.6c1-0.5,2-1.2,2.9-2
	c0.1-0.1-0.2-0.3-0.3-0.2c-1,1-2.1,1.7-3.2,2.2c-0.5,0.2-1,0.3-1.5,0.5c-0.1-0.4-0.3-0.7-0.6-0.9c0-0.1,0-0.2-0.1-0.3
	c1.5-1.1,2.8-2.8,3.8-4.8c0.1-0.1-0.3-0.2-0.4-0.1c-0.9,1.9-2.1,3.5-3.5,4.6c-0.1-0.2-0.1-0.4-0.2-0.7c0.8-1.2,1.6-2.5,2.4-3.8
	c0.1-0.1-0.3-0.3-0.4-0.1c-0.7,1.2-1.4,2.4-2.2,3.5c-0.1-0.1-0.1-0.3-0.2-0.4c0.3-0.8,0.6-1.5,0.8-2.3c0-0.1-0.3-0.3-0.4-0.2
	c-0.2,0.7-0.5,1.4-0.7,2.1c-0.2-0.3-0.4-0.5-0.7-0.6c0-0.1,0-0.1,0-0.2c0-0.6-0.3-1.1-0.7-1.1c-0.4,0-0.7,0.5-0.7,1.1
	c0,0.1,0,0.1,0,0.2c-0.4,0.2-0.7,0.6-1,1.1c-0.3-0.8-0.6-1.6-0.9-2.5c0-0.2-0.4-0.2-0.4-0.1c0.3,1,0.6,2,1,2.9
	c-0.1,0.1-0.1,0.3-0.2,0.4c-0.8-1.3-1.6-2.6-2.4-3.9c-0.1-0.1-0.4-0.1-0.3,0.1c0.9,1.5,1.8,2.9,2.7,4.2c-0.1,0.2-0.1,0.4-0.2,0.6
	c-1.5-1.1-2.9-2.8-3.9-4.9c-0.1-0.1-0.4-0.1-0.4,0c1.1,2.2,2.6,4,4.2,5.2l0,0c-0.2,0.2-0.4,0.5-0.5,0.8c-0.6-0.2-1.3-0.3-1.9-0.5
	c-1.2-0.4-2.4-1.2-3.4-2.2c-0.1-0.1-0.4-0.1-0.2,0.1c0.9,0.9,2,1.6,3,2.1c0.8,0.3,1.6,0.6,2.5,0.7c-0.1,0.3-0.2,0.6-0.3,1
	c-2.2,0-4.5-0.6-6.6-1.7c-0.1,0-0.4,0.1-0.3,0.2c2.2,1.2,4.5,1.8,6.8,1.8c0,0.2,0,0.4,0,0.6v0.7c0,0.3-0.1,0.7-0.1,1.1
	c-0.2,1.3-1.8,2.6-2.1,3c-0.5,0.7-2.4,1.1-2.5,1.3c-1,1.2-1,2.5-1,4.1c0,0.9,0.9,2.2,1.8,3.2c0.6,0.6,1.3,0.8,2.1,0.6
	c1.3-0.5,0.7-1.9,1.1-1c0.4,1.2,0.5,2.5,0.3,3.8c-0.3,1.2-1.6,5.7-2,7.2c-1.9,6.6-3,10.5-2.9,12.1c0,1.6,0.2,5.3,1,7.6
	c0.8,2.3,2.1,5.6,3.5,7.8c1,1.6,2.3,3.3,3.1,4.4c0.1,0.3,0.1,0.5,0.1,0.8c0,0.5-0.1,1-0.2,1.4c-0.3,0.5-0.6,0.9-0.9,1.2
	c-0.4,0.3-0.8,0.6-1.2,0.6c-0.5,0-0.9,0-1.3-0.2c-1-0.5-1.9-1.1-2.8-1.9c-0.9-0.8-1.9-1.6-2.9-2.3c-0.5-0.4-1.1-0.6-1.7-0.7
	c-0.2,0-0.3,0-0.5,0l-0.4,0.1c-0.3,0.1-0.5,0.2-0.7,0.3c-0.5,0.2-1,0.5-1.4,1c-0.4,0.4-0.8,1-1,1.7c-0.3,1.2-0.5,2.5-0.4,3.7
	c0,0.5,0.1,1,0.1,1.4c0,0.4,0,0.8,0,1.2c0,0.5-0.1,1.1-0.3,1.6c-0.1,0.2-0.1,0.3-0.2,0.4l0.1,0.3c0.1-0.1,0.2-0.3,0.3-0.5
	c0.2-0.5,0.4-1.1,0.5-1.7c0.1-0.4,0.1-0.9,0.1-1.3c0-0.5,0-1,0-1.5c0-1.1,0.1-2.1,0.5-3c0.4-1,1.1-1.6,1.9-1.8
	c0.2-0.1,0.4-0.1,0.7-0.2l0.4,0c0.1,0,0.2,0,0.3,0c0.4,0.1,0.8,0.4,1.2,0.7c0.9,0.7,1.7,1.6,2.7,2.5c1,1,2,1.8,3.1,2.4
	c0.6,0.3,1.3,0.5,1.9,0.4c0.7-0.1,1.3-0.4,1.9-0.9c0.6-0.4,1.1-1.1,1.6-1.9c0.2-0.5,0.4-1,0.5-1.5c0.1-0.5,0.1-1.1,0.1-1.6
	c0.5-0.7,2.3-3,3.6-5c1.4-2.2,2.7-5.5,3.5-7.8s0.9-6,1-7.6c0-1.6-1.1-5.5-2.9-12.1c-0.4-1.5-1.7-5.9-2-7.1c-0.2-1.3-0.1-2.6,0.3-3.8
	c0.4-0.9-0.2,0.5,1.1,1c0.7,0.2,1.4,0,2-0.6c0.9-1,1.8-2.3,1.8-3.2c0.1-1.6,0-2.8-1-4.1c-0.2-0.2-2.1-0.6-2.5-1.3
	c-0.3-0.4-1.9-1.7-2.1-3c-0.1-0.9-0.2-1.6-0.2-2c0-0.1,0-0.1,0-0.2c0,0,0-0.1,0-0.1c2.1-0.1,4.2-0.7,6.2-1.8
	C620.3,151,620,150.9,619.9,151z"/>
<rect id="rect3-9-9-7" x="608.5" y="160.8" class="st44" width="4.3" height="137.3"/>
<rect id="rect3-9-6-4-0-1-7" x="605.8" y="159.8" class="st45" width="9.7" height="2.5"/>
<path id="path10-0" class="st46" d="M607.6,140.2c-2.8,5.7-2.8,5.7-2.8,5.7l2.5,0.5l2.6-2.6l3.2,2.6l2.5-0.4l-3.1-5.8l-0.3-0.1"/>
<path id="path2-2" class="st47" d="M662.4,191.1c111.2-0.5,111.2-0.5,111.2-0.5"/>
<path id="path3-6" class="st48" d="M660.3,190.6c111.2,0,111.2,0,111.2,0"/>
<path id="path3-0-0" class="st49" d="M642.6,124.4c133.6,0,133.6,0,133.6,0"/>
<path id="path3-1-6" class="st48" d="M755.8,310.2c16.7,0,16.7,0,16.7,0"/>
<path id="path3-1-5-9" class="st48" d="M755.8,317.3c19.4,0,19.4,0,19.4,0"/>
<path id="path3-1-5-4-0" class="st48" d="M755.8,324.9c23.4,0,23.4,0,23.4,0"/>
<path id="path3-1-5-7-70" class="st48" d="M793.4,110.8c9.3,4,9.3,4,9.3,4"/>
<path id="path3-1-5-7-7-8" class="st48" d="M793.6,111.1c9.4-3.8,9.4-3.8,9.4-3.8"/>
<path id="path3-1-5-2-2" class="st48" d="M778.6,111.1c15.3,0,15.3,0,15.3,0"/>
<path id="path3-9-9" class="st48" d="M772.2,310.8c0-120.1,0-120.1,0-120.1"/>
<path id="path3-9-3-3" class="st48" d="M775.5,317c0-192.8,0-192.8,0-192.8"/>
<path id="path3-9-3-0-1" class="st48" d="M778.9,324.6c0-213.8,0-213.8,0-213.8"/>
<rect id="rect3-5" x="157" y="21.9" class="st29" width="100.5" height="16.5"/>
<rect id="rect3-9-87" x="189.8" y="135.7" class="st30" width="39.8" height="125.2"/>
<rect id="rect3-9-1-8" x="260.7" y="120.5" class="st31" width="14.6" height="56.8"/>
<rect id="rect3-9-1-0-1" x="300.9" y="301.8" class="st32" width="65.6" height="38.6"/>
<rect id="rect3-9-1-2-5" x="207.2" y="125.3" class="st33" width="4.5" height="18"/>
<rect id="rect3-9-6-8" x="38.6" y="153.4" class="st34" width="11.8" height="49.5"/>
<polygon id="rect3-9-6-9-1" class="st35" points="68.6,110.5 53.3,138.3 47,134.5 62.3,106.7 "/>
<rect id="rect3-9-6-4-2" x="50.4" y="167.2" class="st36" width="29.7" height="22"/>
<rect id="rect3-9-6-4-3-22" x="234.9" y="187.2" class="st37" width="25.4" height="14.9"/>
<rect id="rect3-9-6-4-3-8-2" x="184.1" y="192.6" class="st38" width="50.4" height="3.1"/>
<rect id="rect3-9-6-4-3-8-0-6" x="201.2" y="125.5" class="st39" width="66.3" height="3"/>
<rect id="rect3-9-6-4-0-5" x="194.1" y="296" class="st40" width="30.1" height="13"/>
<rect id="rect3-3-6" x="282.9" y="26" transform="matrix(0.866 -0.5 0.5 0.866 0.9054 155.816)" class="st29" width="16.5" height="100.5"/>
<rect id="rect3-7-7" x="71.9" y="69.3" transform="matrix(0.5 -0.866 0.866 0.5 -6.1352 144.5769)" class="st29" width="100.5" height="16.5"/>
<rect id="rect8-0" x="35.6" y="4.9" class="st41" width="346.1" height="346.1"/>
<ellipse id="path8-0" class="st32" cx="45.5" cy="115.4" rx="9.9" ry="9.4"/>
<ellipse id="path8-5-16" class="st42" cx="401.3" cy="93" rx="15.8" ry="15.7"/>
<ellipse id="path8-5-1-7" class="st42" cx="401.9" cy="135.7" rx="15.8" ry="15.7"/>
<radialGradient id="path4-9-3_1_" cx="-892.8708" cy="2694.4927" r="70.9692" gradientTransform="matrix(0.3726 0 0 -0.5827 539.0029 1755.5869)" gradientUnits="userSpaceOnUse">
	<stop  offset="0" style="stop-color:#565759"/>
	<stop  offset="0.58" style="stop-color:#363436"/>
	<stop  offset="1" style="stop-color:#231F20"/>
</radialGradient>
<path id="path4-9-3" class="st52" d="M219.3,153.9c-2,1-4,1.6-6,1.7c0-0.4-0.1-0.7-0.2-1.1c0.7-0.1,1.3-0.4,2-0.6c1-0.5,2-1.2,2.9-2
	c0.1-0.1-0.2-0.3-0.3-0.2c-1,1-2.1,1.7-3.2,2.2c-0.5,0.2-1,0.3-1.5,0.5c-0.1-0.4-0.3-0.7-0.6-0.9c0-0.1,0-0.2-0.1-0.3
	c1.5-1.1,2.8-2.8,3.8-4.8c0.1-0.1-0.3-0.2-0.4-0.1c-0.9,1.9-2.1,3.5-3.5,4.6c-0.1-0.2-0.1-0.4-0.2-0.7c0.8-1.2,1.6-2.5,2.4-3.8
	c0.1-0.1-0.3-0.3-0.4-0.1c-0.7,1.2-1.4,2.4-2.2,3.5c-0.1-0.1-0.1-0.3-0.2-0.4c0.3-0.8,0.6-1.5,0.8-2.3c0-0.1-0.3-0.3-0.4-0.2
	c-0.2,0.7-0.5,1.4-0.7,2.1c-0.2-0.3-0.4-0.5-0.7-0.6c0-0.1,0-0.1,0-0.2c0-0.6-0.3-1.1-0.7-1.1c-0.4,0-0.7,0.5-0.7,1.1
	c0,0.1,0,0.1,0,0.2c-0.4,0.2-0.7,0.6-1,1.1c-0.3-0.8-0.6-1.6-0.9-2.5c0-0.2-0.4-0.2-0.4-0.1c0.3,1,0.6,2,1,2.9
	c-0.1,0.1-0.1,0.3-0.2,0.4c-0.8-1.3-1.6-2.6-2.4-3.9c-0.1-0.1-0.4-0.1-0.3,0.1c0.9,1.5,1.8,2.9,2.7,4.2c-0.1,0.2-0.1,0.4-0.2,0.6
	c-1.5-1.1-2.9-2.8-3.9-4.9c-0.1-0.1-0.4-0.1-0.4,0c1.1,2.2,2.6,4,4.2,5.2l0,0c-0.2,0.2-0.4,0.5-0.5,0.8c-0.6-0.2-1.3-0.3-1.9-0.5
	c-1.2-0.4-2.4-1.2-3.4-2.2c-0.1-0.1-0.4-0.1-0.2,0.1c0.9,0.9,2,1.6,3,2.1c0.8,0.3,1.6,0.6,2.5,0.7c-0.1,0.3-0.2,0.6-0.3,1
	c-2.2,0-4.5-0.6-6.6-1.7c-0.1,0-0.4,0.1-0.3,0.2c2.2,1.2,4.5,1.8,6.8,1.8c0,0.2,0,0.4,0,0.6v0.7c0,0.3-0.1,0.7-0.1,1.1
	c-0.2,1.3-1.8,2.6-2.1,3c-0.5,0.7-2.4,1.1-2.5,1.3c-1,1.2-1,2.5-1,4.1c0,0.9,0.9,2.2,1.8,3.2c0.6,0.6,1.3,0.8,2.1,0.6
	c1.3-0.5,0.7-1.9,1.1-1c0.4,1.2,0.5,2.5,0.3,3.8c-0.3,1.2-1.6,5.7-2,7.2c-1.9,6.6-3,10.5-2.9,12.1c0,1.6,0.2,5.3,1,7.6
	c0.8,2.3,2.1,5.6,3.5,7.8c1,1.6,2.3,3.3,3.1,4.4c0.1,0.3,0.1,0.5,0.1,0.8c0,0.5-0.1,1-0.2,1.4c-0.3,0.5-0.6,0.9-0.9,1.2
	c-0.4,0.3-0.8,0.6-1.2,0.6c-0.5,0-0.9,0-1.3-0.2c-1-0.5-1.9-1.1-2.8-1.9c-0.9-0.8-1.9-1.6-2.9-2.3c-0.5-0.4-1.1-0.6-1.7-0.7
	c-0.2,0-0.3,0-0.5,0l-0.4,0.1c-0.3,0.1-0.5,0.2-0.7,0.3c-0.5,0.2-1,0.5-1.4,1c-0.4,0.4-0.8,1-1,1.7c-0.3,1.2-0.5,2.5-0.4,3.7
	c0,0.5,0.1,1,0.1,1.4c0,0.4,0,0.8,0,1.2c0,0.5-0.1,1.1-0.3,1.6c-0.1,0.2-0.1,0.3-0.2,0.4l0.1,0.3c0.1-0.1,0.2-0.3,0.3-0.5
	c0.2-0.5,0.4-1.1,0.5-1.7c0.1-0.4,0.1-0.9,0.1-1.3c0-0.5,0-1,0-1.5c0-1.1,0.1-2.1,0.5-3c0.4-1,1.1-1.6,1.9-1.8
	c0.2-0.1,0.4-0.1,0.7-0.2l0.4,0c0.1,0,0.2,0,0.3,0c0.4,0.1,0.8,0.4,1.2,0.7c0.9,0.7,1.7,1.6,2.7,2.5c1,1,2,1.8,3.1,2.4
	c0.6,0.3,1.3,0.5,1.9,0.4c0.7-0.1,1.3-0.4,1.9-0.9c0.6-0.4,1.1-1.1,1.6-1.9c0.2-0.5,0.4-1,0.5-1.5c0.1-0.5,0.1-1.1,0.1-1.6
	c0.5-0.7,2.3-3,3.6-5c1.4-2.2,2.7-5.5,3.5-7.8c0.8-2.3,0.9-6,1-7.6c0-1.6-1.1-5.5-2.9-12.1c-0.4-1.5-1.7-5.9-2-7.1
	c-0.2-1.3-0.1-2.6,0.3-3.8c0.4-0.9-0.2,0.5,1.1,1c0.7,0.2,1.4,0,2-0.6c0.9-1,1.8-2.3,1.8-3.2c0.1-1.6,0-2.8-1-4.1
	c-0.2-0.2-2.1-0.6-2.5-1.3c-0.3-0.4-1.9-1.7-2.1-3c-0.1-0.9-0.2-1.6-0.2-2c0-0.1,0-0.1,0-0.2c0,0,0-0.1,0-0.1
	c2.1-0.1,4.2-0.7,6.2-1.8C219.7,154,219.4,153.9,219.3,153.9z"/>
<rect id="rect3-9-9-5" x="208" y="163.7" class="st44" width="4.3" height="137.3"/>
<rect id="rect3-9-6-4-0-1-1" x="205.2" y="162.7" class="st45" width="9.7" height="2.5"/>
<path id="path10-4" class="st46" d="M207,143.2c-2.8,5.7-2.8,5.7-2.8,5.7l2.5,0.5l2.6-2.6l3.2,2.6l2.5-0.4l-3.1-5.8l-0.3-0.1"/>
<path id="path2-3" class="st47" d="M261.8,194c111.2-0.5,111.2-0.5,111.2-0.5"/>
<path id="path3-94" class="st48" d="M259.8,193.6c111.2,0,111.2,0,111.2,0"/>
<path id="path3-0-08" class="st49" d="M242.1,127.3c133.6,0,133.6,0,133.6,0"/>
<path id="path3-1-4" class="st48" d="M355.2,313.2c16.7,0,16.7,0,16.7,0"/>
<path id="path3-1-5-1" class="st48" d="M355.2,320.3c19.4,0,19.4,0,19.4,0"/>
<path id="path3-1-5-4-8" class="st48" d="M355.2,327.9c23.4,0,23.4,0,23.4,0"/>
<path id="path3-1-5-7-8" class="st48" d="M392.8,113.8c9.3,4,9.3,4,9.3,4"/>
<path id="path3-1-5-7-7-2" class="st48" d="M393,114.1c9.4-3.8,9.4-3.8,9.4-3.8"/>
<path id="path3-1-5-2-5" class="st48" d="M378,114c15.3,0,15.3,0,15.3,0"/>
<path id="path3-9-0" class="st48" d="M371.7,313.7c0-120.1,0-120.1,0-120.1"/>
<path id="path3-9-3-2" class="st48" d="M374.9,320c0-192.8,0-192.8,0-192.8"/>
<path id="path3-9-3-0-9" class="st48" d="M378.4,327.6c0-213.8,0-213.8,0-213.8"/>
<text transform="matrix(1 0 0 1 212.2149 1049.7629)" class="st5 st6">  D</text>
<text transform="matrix(1 0 0 1 178.4835 1082.1642)" class="st5 st6">Dual Port Lick</text>
<text transform="matrix(1 0 0 1 198.4932 1112.1642)" class="st5 st6"> Dectector</text>
<circle id="path11-4-9" class="st7" cx="233.4" cy="1043.6" r="17.2"/>
<path id="path4-5-0-0-0" class="st1" d="M565.2,980.5c0,46.6,0,46.6,0,46.6"/>
<text transform="matrix(1 0 0 1 545.3049 1050.0938)" class="st5 st6">  F</text>
<text transform="matrix(1 0 0 1 523.5738 1082.9955)" class="st5 st6">Arduino </text>
<text transform="matrix(1 0 0 1 494.23 1112.9955)" class="st5 st6">Control Board</text>
<circle id="path11-4-9-5" class="st7" cx="565.6" cy="1043.6" r="17.2"/>
<text transform="matrix(1 0 0 1 704.0197 655.0161)" class="st5 st6">  I</text>
<text transform="matrix(1 0 0 1 693.0015 686.4078)" class="st5 st6">Reward</text>
<circle id="path11-4-9-5-0" class="st7" cx="725.2" cy="648.7" r="17.2"/>
<path class="st53" d=""/>
<path id="path6" class="st54" d="M574.3,2191.9l-14.2,14.2l49.6-14.2l-49.6-14.2L574.3,2191.9z"/>
<path id="path4-1-7-5" class="st54" d="M2327-74.7"/>
<path class="st53" d=""/>
<path id="path6-2" class="st54" d="M774.3,2003l-14.2,14.2l49.6-14.2l-49.6-14.2L774.3,2003z"/>
<path id="path4-1-7-5-7" class="st54" d="M2527,114.2"/>
<path class="st53" d=""/>
<path id="path6-7" class="st54" d="M846.4,1945.4l-14.2,14.2l49.6-14.2l-49.6-14.2L846.4,1945.4z"/>
<path id="path4-1-7-5-78" class="st54" d="M2599.1,171.9"/>
<path class="st53" d=""/>
<path id="path6-4" class="st54" d="M1096.6,2241.2l-14.2,14.2l49.6-14.2l-49.6-14.2L1096.6,2241.2z"/>
<path id="path4-1-7-5-5" class="st54" d="M2849.3-124"/>
</svg>
