<?xml version="1.0" encoding="utf-8"?>
<!-- Generator: Adobe Illustrator 25.3.1, SVG Export Plug-In . SVG Version: 6.00 Build 0)  -->
<svg version="1.1" id="Layer_1" xmlns="http://www.w3.org/2000/svg" xmlns:xlink="http://www.w3.org/1999/xlink" x="0px" y="0px"
	 viewBox="0 0 659 943" style="enable-background:new 0 0 659 943;" xml:space="preserve">
<style type="text/css">
	.st0{font-family:'Helvetica';}
	.st1{font-size:10px;}
	.st2{fill:none;stroke:#262626;stroke-width:0.5;stroke-linecap:square;stroke-linejoin:round;stroke-miterlimit:10;}
	.st3{fill:#262626;}
	.st4{font-size:12px;}
	.st5{font-size:13.2px;}
	.st6{fill:none;stroke:#0000FF;stroke-width:1.5;stroke-linejoin:round;stroke-miterlimit:10;stroke-opacity:0.702;}
	.st7{fill:none;stroke:#FF0000;stroke-width:1.5;stroke-linejoin:round;stroke-miterlimit:10;stroke-opacity:0.702;}
	.st8{fill:none;stroke:#262626;stroke-width:1.5;stroke-linejoin:round;stroke-miterlimit:10;stroke-opacity:0.702;}
	.st9{fill:none;stroke:#92C5DE;stroke-width:1.5;stroke-linejoin:round;stroke-miterlimit:10;stroke-opacity:0.702;}
	.st10{fill:none;stroke:#D6604D;stroke-width:1.5;stroke-linejoin:round;stroke-miterlimit:10;stroke-opacity:0.702;}
	
		.st11{fill:none;stroke:#262626;stroke-width:1.5;stroke-linejoin:bevel;stroke-miterlimit:1;stroke-opacity:0.702;stroke-dasharray:10,6;}
	.st12{fill:#0000FF;fill-opacity:0.2;}
	.st13{fill:none;stroke:#0000FF;stroke-width:2;stroke-linejoin:round;stroke-miterlimit:10;}
	.st14{fill:#FF0000;fill-opacity:0.2;}
	.st15{fill:none;stroke:#FF0000;stroke-width:2;stroke-linejoin:round;stroke-miterlimit:10;}
	.st16{fill:#FFFFFF;}
	.st17{font-size:10.8px;}
	.st18{fill:none;stroke:#262626;stroke-width:0.5;stroke-miterlimit:10;}
</style>
<g>
	<defs>
		<rect id="SVGID_1_" x="85.5" y="70.5" width="511.1" height="486"/>
	</defs>
	<clipPath id="SVGID_2_">
		<use xlink:href="#SVGID_1_"  style="overflow:visible;"/>
	</clipPath>
	<g transform="matrix(1 0 0 1 0 0)" style="clip-path:url(#SVGID_2_);enable-background:new    ;">
		
			<image style="overflow:visible;" width="1023" height="972" xlink:href="A0B7B9B3A459F9CE.png"  transform="matrix(0.4996 0 0 0.5 85.5 70.5)">
		</image>
	</g>
</g>
<text transform="matrix(1 0 0 1 76.5 544.7257)" class="st0 st1">t1</text>
<text transform="matrix(1 0 0 1 76.5 516.9543)" class="st0 st1">t2</text>
<text transform="matrix(1 0 0 1 76.5 489.1829)" class="st0 st1">t1</text>
<text transform="matrix(1 0 0 1 76.5 466.9657)" class="st0 st1">t2</text>
<text transform="matrix(1 0 0 1 76.5 444.7486)" class="st0 st1">t1</text>
<text transform="matrix(1 0 0 1 76.5 416.9771)" class="st0 st1">t2</text>
<text transform="matrix(1 0 0 1 76.5 389.2057)" class="st0 st1">t1</text>
<text transform="matrix(1 0 0 1 76.5 361.4343)" class="st0 st1">t2</text>
<text transform="matrix(1 0 0 1 76.5 333.6629)" class="st0 st1">t1</text>
<text transform="matrix(1 0 0 1 76.5 305.8914)" class="st0 st1">t2</text>
<text transform="matrix(1 0 0 1 76.5 278.12)" class="st0 st1">t1</text>
<text transform="matrix(1 0 0 1 76.5 250.3486)" class="st0 st1">t2</text>
<text transform="matrix(1 0 0 1 76.5 222.5771)" class="st0 st1">t1</text>
<text transform="matrix(1 0 0 1 76.5 194.8057)" class="st0 st1">t2</text>
<text transform="matrix(1 0 0 1 76.5 167.0343)" class="st0 st1">t1</text>
<text transform="matrix(1 0 0 1 76.5 139.2629)" class="st0 st1">t2</text>
<text transform="matrix(1 0 0 1 76.5 111.4914)" class="st0 st1">t1</text>
<text transform="matrix(1 0 0 1 76.5 86.4971)" class="st0 st1">t2</text>
<text transform="matrix(1 0 0 1 190.15 553.5)" class="st0 st1">X-Y</text>
<text transform="matrix(1 0 0 1 259.65 553.5)" class="st0 st1">A-C1</text>
<text transform="matrix(1 0 0 1 405.65 553.5)" class="st0 st1">A-C2</text>
<text transform="matrix(1 0 0 1 338.15 553.5)" class="st0 st1">B1</text>
<text transform="matrix(1 0 0 1 484.15 553.5)" class="st0 st1">B2</text>
<text transform="matrix(1 0 0 1 557.15 553.5)" class="st0 st1">Y2</text>
<line class="st2" x1="85.5" y1="556.5" x2="596.5" y2="556.5"/>
<line class="st2" x1="85.5" y1="556.5" x2="85.5" y2="561.6"/>
<line class="st2" x1="158.5" y1="556.5" x2="158.5" y2="561.6"/>
<line class="st2" x1="231.5" y1="556.5" x2="231.5" y2="561.6"/>
<line class="st2" x1="304.5" y1="556.5" x2="304.5" y2="561.6"/>
<line class="st2" x1="377.5" y1="556.5" x2="377.5" y2="561.6"/>
<line class="st2" x1="450.5" y1="556.5" x2="450.5" y2="561.6"/>
<line class="st2" x1="523.5" y1="556.5" x2="523.5" y2="561.6"/>
<line class="st2" x1="596.5" y1="556.5" x2="596.5" y2="561.6"/>
<text transform="matrix(1 0 0 1 82 578.01)" class="st3 st0 st4">0</text>
<text transform="matrix(1 0 0 1 151.5 578.01)" class="st3 st0 st4">20</text>
<text transform="matrix(1 0 0 1 224.5 578.01)" class="st3 st0 st4">40</text>
<text transform="matrix(1 0 0 1 297.5 578.01)" class="st3 st0 st4">60</text>
<text transform="matrix(1 0 0 1 370.5 578.01)" class="st3 st0 st4">80</text>
<text transform="matrix(1 0 0 1 440 578.01)" class="st3 st0 st4">100</text>
<text transform="matrix(1 0 0 1 513 578.01)" class="st3 st0 st4">120</text>
<text transform="matrix(1 0 0 1 586 578.01)" class="st3 st0 st4">140</text>
<text transform="matrix(1 0 0 1 317.5002 594.51)" class="st3 st0 st5">position</text>
<line class="st2" x1="85.5" y1="556.5" x2="85.5" y2="70.5"/>
<line class="st2" x1="85.5" y1="502.3" x2="80.4" y2="502.3"/>
<line class="st2" x1="85.5" y1="446.8" x2="80.4" y2="446.8"/>
<line class="st2" x1="85.5" y1="391.3" x2="80.4" y2="391.3"/>
<line class="st2" x1="85.5" y1="335.7" x2="80.4" y2="335.7"/>
<line class="st2" x1="85.5" y1="280.2" x2="80.4" y2="280.2"/>
<line class="st2" x1="85.5" y1="224.6" x2="80.4" y2="224.6"/>
<line class="st2" x1="85.5" y1="169.1" x2="80.4" y2="169.1"/>
<line class="st2" x1="85.5" y1="113.5" x2="80.4" y2="113.5"/>
<text transform="matrix(1 0 0 1 61.99 506.8457)" class="st3 st0 st4">20</text>
<text transform="matrix(1 0 0 1 61.99 451.3029)" class="st3 st0 st4">40</text>
<text transform="matrix(1 0 0 1 61.99 395.76)" class="st3 st0 st4">60</text>
<text transform="matrix(1 0 0 1 61.99 340.2171)" class="st3 st0 st4">80</text>
<text transform="matrix(1 0 0 1 54.99 284.6743)" class="st3 st0 st4">100</text>
<text transform="matrix(1 0 0 1 54.99 229.1314)" class="st3 st0 st4">120</text>
<text transform="matrix(1 0 0 1 54.99 173.5886)" class="st3 st0 st4">140</text>
<text transform="matrix(1 0 0 1 54.99 118.0457)" class="st3 st0 st4">160</text>
<text transform="matrix(6.123234e-17 -1 1 6.123234e-17 49.49 322.5002)" class="st3 st0 st5">lap</text>
<line class="st6" x1="85.5" y1="556.5" x2="596.5" y2="556.5"/>
<line class="st7" x1="85.5" y1="528.7" x2="596.5" y2="528.7"/>
<line class="st6" x1="85.5" y1="501" x2="596.5" y2="501"/>
<line class="st7" x1="85.5" y1="478.7" x2="596.5" y2="478.7"/>
<line class="st6" x1="85.5" y1="456.5" x2="596.5" y2="456.5"/>
<line class="st7" x1="85.5" y1="428.8" x2="596.5" y2="428.8"/>
<line class="st6" x1="85.5" y1="401" x2="596.5" y2="401"/>
<line class="st7" x1="85.5" y1="373.2" x2="596.5" y2="373.2"/>
<line class="st6" x1="85.5" y1="345.4" x2="596.5" y2="345.4"/>
<line class="st7" x1="85.5" y1="317.7" x2="596.5" y2="317.7"/>
<line class="st6" x1="85.5" y1="289.9" x2="596.5" y2="289.9"/>
<line class="st7" x1="85.5" y1="262.1" x2="596.5" y2="262.1"/>
<line class="st6" x1="85.5" y1="234.4" x2="596.5" y2="234.4"/>
<line class="st7" x1="85.5" y1="206.6" x2="596.5" y2="206.6"/>
<line class="st6" x1="85.5" y1="178.8" x2="596.5" y2="178.8"/>
<line class="st7" x1="85.5" y1="151" x2="596.5" y2="151"/>
<line class="st6" x1="85.5" y1="123.3" x2="596.5" y2="123.3"/>
<line class="st7" x1="85.5" y1="98.3" x2="596.5" y2="98.3"/>
<line class="st8" x1="198.6" y1="556.5" x2="198.6" y2="70.5"/>
<line class="st9" x1="271.6" y1="556.5" x2="271.6" y2="70.5"/>
<line class="st9" x1="417.6" y1="556.5" x2="417.6" y2="70.5"/>
<line class="st10" x1="344.6" y1="556.5" x2="344.6" y2="70.5"/>
<line class="st10" x1="490.6" y1="556.5" x2="490.6" y2="70.5"/>
<line class="st11" x1="563.7" y1="556.5" x2="563.7" y2="70.5"/>
<line class="st2" x1="85.5" y1="839.5" x2="596.5" y2="839.5"/>
<line class="st2" x1="85.5" y1="839.5" x2="85.5" y2="844.6"/>
<line class="st2" x1="158.5" y1="839.5" x2="158.5" y2="844.6"/>
<line class="st2" x1="231.5" y1="839.5" x2="231.5" y2="844.6"/>
<line class="st2" x1="304.5" y1="839.5" x2="304.5" y2="844.6"/>
<line class="st2" x1="377.5" y1="839.5" x2="377.5" y2="844.6"/>
<line class="st2" x1="450.5" y1="839.5" x2="450.5" y2="844.6"/>
<line class="st2" x1="523.5" y1="839.5" x2="523.5" y2="844.6"/>
<line class="st2" x1="596.5" y1="839.5" x2="596.5" y2="844.6"/>
<text transform="matrix(1 0 0 1 82 861.01)" class="st3 st0 st4">0</text>
<text transform="matrix(1 0 0 1 151.5 861.01)" class="st3 st0 st4">20</text>
<text transform="matrix(1 0 0 1 224.5 861.01)" class="st3 st0 st4">40</text>
<text transform="matrix(1 0 0 1 297.5 861.01)" class="st3 st0 st4">60</text>
<text transform="matrix(1 0 0 1 370.5 861.01)" class="st3 st0 st4">80</text>
<text transform="matrix(1 0 0 1 440 861.01)" class="st3 st0 st4">100</text>
<text transform="matrix(1 0 0 1 513 861.01)" class="st3 st0 st4">120</text>
<text transform="matrix(1 0 0 1 586 861.01)" class="st3 st0 st4">140</text>
<text transform="matrix(1 0 0 1 317.5002 877.51)" class="st3 st0 st5">position</text>
<line class="st2" x1="85.5" y1="839.5" x2="85.5" y2="636"/>
<line class="st2" x1="85.5" y1="839.5" x2="80.4" y2="839.5"/>
<line class="st2" x1="85.5" y1="805.6" x2="80.4" y2="805.6"/>
<line class="st2" x1="85.5" y1="771.7" x2="80.4" y2="771.7"/>
<line class="st2" x1="85.5" y1="737.8" x2="80.4" y2="737.8"/>
<line class="st2" x1="85.5" y1="703.8" x2="80.4" y2="703.8"/>
<line class="st2" x1="85.5" y1="669.9" x2="80.4" y2="669.9"/>
<line class="st2" x1="85.5" y1="636" x2="80.4" y2="636"/>
<text transform="matrix(1 0 0 1 68.99 844)" class="st3 st0 st4">0</text>
<text transform="matrix(1 0 0 1 61.99 810.0833)" class="st3 st0 st4">10</text>
<text transform="matrix(1 0 0 1 61.99 776.1667)" class="st3 st0 st4">20</text>
<text transform="matrix(1 0 0 1 61.99 742.25)" class="st3 st0 st4">30</text>
<text transform="matrix(1 0 0 1 61.99 708.3333)" class="st3 st0 st4">40</text>
<text transform="matrix(1 0 0 1 61.99 674.4167)" class="st3 st0 st4">50</text>
<text transform="matrix(1 0 0 1 61.99 640.5)" class="st3 st0 st4">60</text>
<text transform="matrix(6.123234e-17 -1 1 6.123234e-17 56.49 765.7492)" class="st3 st0 st5">firing rate</text>
<path class="st12" d="M92.8,813.8l3.6-6.8l3.7-6.7l3.7-5.4l3.7-2.1l3.7-1.4l3.6,2.8l3.7,0.7l3.7-6.3l3.7-5.8l3.7-1.8l3.6-5.3
	l3.7-10.2l3.6-4l3.6-3.3l3.7-9l3.6-10.7l3.7-6.4l3.6-8.8l3.6-12.7l3.7-9.3l3.6-9.9l3.7-8.3l3.6-10l3.6-15.5l3.7-8.5l3.6,5l3.7,14.5
	l3.6,5.2l3.6,1.7l3.7,10.1l3.6,11.8l3.7,14.3l3.6,14.5l3.6,11.4l3.7,0.5l3.6-10.5l3.7-10.4l3.6-3.9l3.6-6l3.7-0.8l3.6,1.9l3.7-3.6
	l3.6-14.3l3.6-8.5l3.6-6.9l3.7-8.6l3.6,1.3l3.6,6.8l3.6,8.9l3.6,8l3.7,12.2l3.6,18.1l3.6,16.7l3.6,10.1l3.6,5.5l3.7,1l3.6,0.3
	l3.6-3.4l3.6-8.8l3.6-8.2l3.7-14.7l3.6-16.9l3.6-15.1l3.6-16.4l3.6-20.4l3.7-2.5l3.6,7.2l3.6,9.7l3.6,12.6l3.6,19.5l3.7,15.9
	l3.6,7.9l3.6,9.1l3.6,13.5l3.6,9.6l3.7,0.9l3.6-2.1l3.6-2l3.6-5.1l3.6-7.7l3.7-9.3l3.6-8.2l3.6-12.6l3.6-17.5l3.6-2.7l3.7,5.4l3.6,3
	l3.6,5l3.6,8.1l3.6,8.2L425,733l3.6,11.1l3.6,8.1l3.6,10l3.6,12.1l3.7,4l3.6-3l3.6-9.8l3.6-5.8l3.6-4.5l3.7-9.4l3.6-14.7l3.6-20.6
	l3.6-13l3.6-8.8l3.7-8.3l3.6-3.1l3.6,4.1l3.6,9.1l3.6,11.5l3.7,12.7l3.6,9.2l3.6,12.6l3.6,20.4l3.6,4.7l3.7,6l3.6,10l3.7,7.5
	l3.7,7.1l3.6,3.6l3.7,1.6l3.6,3.5l3.7-0.7l3.7,1.8l3.6,6.3l3.7,5.3l3.6,1l3.7-0.6l3.7-1.7l3.6,2.3l3.7,6.1l3.6,2.9l3.7,2.2l3.7,2.5
	l3.6,1.6l3.7-0.3l3.6-1.1l3.7-0.4l0.1,0V828V823l-0.1,0l-3.7,1.1l-3.6,1.3l-3.7,0l-3.6-1.3l-3.7-3l-3.7-2.3l-3.6-3l-3.7-7.7
	l-3.6-2.3l-3.7,2l-3.7,0.5l-3.6-0.6l-3.7-5.9l-3.6-7.5l-3.7-1.6l-3.7,1.6l-3.6-3.3l-3.7-1.9l-3.6-4.3l-3.7-8.1l-3.7-7.5l-3.6-10.9
	l-3.7-6.2l-3.6-5.2l-3.6-21.2l-3.6-12.8l-3.6-9.5l-3.7-12.1l-3.6-12.7l-3.6-10.6l-3.6-3.8l-3.6,3.2l-3.7,7.7l-3.6,9.4l-3.6,13.7
	l-3.6,21.4l-3.6,15.6l-3.7,10.1l-3.6,5.3l-3.6,6.1l-3.6,9.9l-3.6,3l-3.7-3.9l-3.6-12.5l-3.6-10.5l-3.6-8.4l-3.6-11l-3.7-15.3
	l-3.6-9.6l-3.6-8.7l-3.6-4.4l-3.6-2.8l-3.7-5.6l-3.6,3.3l-3.6,17.6l-3.6,12.7l-3.6,8.8l-3.7,9l-3.6,7.4l-3.6,5l-3.6,2.9l-3.6,2
	l-3.7-0.9l-3.6-9.6l-3.6-15.1l-3.6-9.4l-3.6-6.8l-3.7-16.6l-3.6-19.1l-3.6-13.2l-3.6-10.3l-3.6-7.4l-3.7,1.7l-3.6,19.9l-3.6,16
	l-3.6,15.1l-3.6,18.8l-3.7,15.6l-3.6,9.1l-3.6,8.9l-3.6,3.6l-3.6-0.1l-3.7-0.2l-3.6-5.9l-3.6-10.9l-3.6-17.8l-3.6-19.4l-3.7-12.6
	l-3.6-7.5l-3.6-8.6l-3.6-7.1l-3.6-1.5l-3.7,8.4l-3.6,7.6l-3.6,10l-3.6,13.8l-3.7,4.4l-3.6-2.1l-3.7,1.4l-3.6,5.5l-3.6,4l-3.7,10.1
	l-3.6,11.1l-3.7-0.4l-3.6-11.4l-3.6-14.4l-3.7-15.1l-3.6-13l-3.7-10L195,661l-3.6-6.1l-3.7-14.6l-3.4-4.3h-0.4l-3.5,8.7l-3.6,15.9
	l-3.6,11l-3.7,8.8l-3.6,10l-3.7,9.1l-3.6,13.3l-3.6,8.7l-3.7,5.8l-3.6,11.8l-3.7,8.3l-3.6,3.4l-3.6,5.5l-3.7,9.9l-3.6,5.7l-3.7,2.1
	l-3.7,6.4l-3.7,6.7l-3.7-0.7l-3.6-3.1l-3.7,2.4l-3.7,1l-3.7,5.2l-3.7,7.5l-3.6,7.3l-3.7,9.9v5.6L92.8,813.8z"/>
<path class="st13" d="M89.2,819.5l3.7-9.2l3.6-7l3.7-7.1l3.7-5.3l3.7-1.5l3.7-1.9l3.6,3l3.7,0.7l3.7-6.5l3.7-6.1l3.7-2l3.6-5.5
	l3.7-10.1l3.6-4.7l3.6-3.3l3.7-8.7l3.6-11.2l3.7-6.1l3.6-8.7l3.6-13l3.7-9.2l3.6-10l3.7-8.6l3.6-10.5l3.6-15.7l3.7-8.7l3.6,4.8
	l3.7,14.5l3.6,5.7l3.6,2.2l3.7,10.1l3.6,12.4l3.7,14.7l3.6,14.5l3.6,11.4l3.7,0.4l3.6-10.8l3.7-10.2l3.6-3.9l3.6-5.8l3.7-1.1l3.6,2
	l3.7-4l3.6-14.1l3.6-9.2l3.6-7.2l3.7-8.5l3.6,1.4l3.6,6.9l3.6,8.8l3.6,7.7l3.7,12.4l3.6,18.7l3.6,17.3l3.6,10.5l3.6,5.7l3.7,0.6
	l3.6,0.2l3.6-3.5l3.6-8.9l3.6-8.7l3.7-15.2l3.6-17.8l3.6-15.1l3.6-16.2l3.6-20.1l3.7-2.1l3.6,7.3l3.6,10l3.6,12.9l3.6,19.3l3.7,16.3
	l3.6,7.4l3.6,9.3l3.6,14.3l3.6,9.6l3.7,0.9l3.6-2l3.6-2.5l3.6-5l3.6-7.5l3.7-9.2l3.6-8.5l3.6-12.7l3.6-17.5l3.6-3l3.7,5.5l3.6,2.9
	l3.6,4.7l3.6,8.4l3.6,8.9l3.7,15.2l3.6,11l3.6,8.2l3.6,10.2l3.6,12.3l3.7,3.9l3.6-3l3.6-9.8l3.6-5.9l3.6-4.9l3.7-9.7l3.6-15.1
	l3.6-21l3.6-13.4l3.6-9.1l3.7-8l3.6-3.1l3.6,4l3.6,9.9l3.6,12.1l3.7,12.4l3.6,9.4l3.6,12.7l3.6,20.8l3.6,5l3.7,6.1l3.6,10.5l3.7,7.5
	l3.7,7.6l3.6,4l3.7,1.7l3.6,3.4l3.7-1.1l3.7,1.7l3.6,6.9l3.7,5.6l3.6,0.8l3.7-0.5l3.7-1.9l3.6,2.3l3.7,6.9l3.6,2.9l3.7,2.3l3.7,2.8
	l3.6,1.4l3.7-0.2l3.6-1.2l3.7-0.8l0.1,0"/>
<path class="st14" d="M89.2,829.6l3.7-2.3l3.6-5.1l3.7-10.3l3.7-6.3l3.7-3.5l3.7-1l3.6,0.4l3.7-1.9l3.7-1.5l3.7-3.3l3.7-7.6
	l3.6-11.6l3.7-4.4l3.6-2.2l3.6-3.2l3.7-6.2l3.6-8.5l3.7-9.3l3.6-8.4l3.6-10.3l3.7-5.4l3.6-11.9l3.7-18.1l3.6-15.7l3.6-12.2l3.7,2.4
	l3.6,4.8l3.7,5.9l3.6-1.2l3.6,5l3.7,14.5l3.6,21.9l3.7,19.6l3.6,14.1l3.6,12.9l3.7,8.2l3.6-0.3l3.7-4.7l3.6-4.2l3.6-3.3l3.7-3.9
	l3.6-7.2l3.7-7.3l3.6-10.7l3.6-9.1l3.6-6.4l3.7-10.1l3.6-6.2l3.6,10.9l3.6,17.7l3.6,8.3l3.7-0.7l3.6,3.7l3.6,6.9l3.6,7.9l3.6,5
	l3.7,2l3.6-1.9l3.6-0.5l3.6-2.2l3.6-8.7l3.7-21.8l3.6-16.7l3.6-15.4l3.6-12.3l3.6-10.7l3.7-3.7l3.6,7l3.6,13.2l3.6,13.6l3.6,12.2
	l3.7,17l3.6,17.4l3.6,20.1l3.6,8.4l3.6,4.5l3.7,1.5l3.6,1.6l3.6-3.6l3.6-5.7l3.6-1.1l3.7-6.3l3.6-9.5l3.6-6.1l3.6-3.8l3.6-5.6
	l3.7-8.1l3.6-5.7l3.6,6.4l3.6,12.7l3.6,6.1l3.7-5.5l3.6,2.5l3.6,8.6l3.6,8.5l3.6,7.9l3.7,4.3l3.6-2l3.6-3.4l3.6-6.6l3.6-10.4l3.7-14
	l3.6-15.5l3.6-16.1l3.6-20.7l3.6-14.6l3.7-4l3.6,4.2l3.6,7.5l3.6,8.1l3.6,12.2l3.7,15.3l3.6,18.8l3.6,16.1l3.6,9.1l3.6,5.9l3.7-2.6
	l3.6-7.4l3.7-2.1l3.7-6.3l3.6-6l3.7-6.7l3.6-14l3.7-17.9l3.7-12.6l3.6,1l3.7,6.7l3.6,3.7l3.7-0.2l3.7-1.7l3.6,13.1L571,736l3.6,26.2
	l3.7,19.9l3.7,15.9l3.6,8.3l3.7,5.5l3.6,1.8l3.7,4.5l0.1,0.1v-0.1v-4.6l-0.1,0l-3.7-5.4l-3.6-1.8l-3.7-5.9l-3.6-9l-3.7-17.5
	l-3.7-21.7L571,725l-3.7-25.2l-3.6-13.5l-3.7,3.4l-3.7,0l-3.6-3.2l-3.7-7.4l-3.6-2.1l-3.7,13l-3.7,19.8l-3.6,14.7l-3.7,6.6l-3.6,5.7
	l-3.7,4.9l-3.7,3.3l-3.6,7.6l-3.7,3.7l-3.6-5.9l-3.6-10.3l-3.6-17.1l-3.6-19.7l-3.7-16.5l-3.6-12.7l-3.6-8.4l-3.6-8.7l-3.6-4
	l-3.7,3.7l-3.6,16.2l-3.6,23.2l-3.6,16.7l-3.6,15.4l-3.7,14.7l-3.6,11l-3.6,5.7l-3.6,3.6l-3.6,3.8l-3.7-3.9l-3.6-7.7l-3.6-9.5
	l-3.6-9.6l-3.6-3.3l-3.7,5.4l-3.6-6.1l-3.6-13.6l-3.6-5.9l-3.6,5.4l-3.7,8.2l-3.6,7.6l-3.6,4.4l-3.6,5.4l-3.6,9.4l-3.7,6.4l-3.6,1.5
	l-3.6,5.4l-3.6,3.4l-3.6-1.3l-3.7-0.7l-3.6-4.8l-3.6-8.8l-3.6-21.6l-3.6-18.1l-3.7-16.9l-3.6-13.8l-3.6-15.1l-3.6-13l-3.6-6.4
	l-3.7,3.1l-3.6,11.2l-3.6,12.4l-3.6,14.9l-3.6,18.5l-3.7,23.6l-3.6,10.1l-3.6,2.1l-3.6,0.5l-3.6,2.3l-3.7-2.5l-3.6-5.7l-3.6-8.7
	l-3.6-6.7l-3.6-3.5l-3.7,1.4l-3.6-10.5l-3.6-19.2l-3.6-9.8l-3.6,7.4l-3.7,11l-3.6,6.6l-3.6,9.8l-3.6,10l-3.7,7.2l-3.6,7.8l-3.7,4.4
	l-3.6,4.6l-3.6,4.2l-3.7,3.7l-3.6,0.6l-3.7-8.5l-3.6-13.6l-3.6-15.5l-3.7-20.9l-3.6-22.6l-3.7-14.7l-3.6-4.9l-3.6,0.6l-3.7-5.1
	l-3.6-5.2l-3.7-3.1l-3.6,12.7l-3.6,16.4l-3.7,19.5l-3.6,11.9l-3.7,4.6l-3.6,12.3l-3.6,9.2l-3.7,8.6l-3.6,8.1l-3.7,6.3l-3.6,4
	l-3.6,3.3l-3.7,4.1l-3.6,11.8l-3.7,8.2l-3.7,4l-3.7,0.6l-3.7,3.3l-3.6-0.5l-3.7,1.3l-3.7,3.8l-3.7,6.4l-3.7,11.5l-3.6,5.5l-3.7,2.7
	V829.6z"/>
<path class="st15" d="M89.2,827.7l3.7-2.5l3.6-5.3l3.7-10.9l3.7-6.4l3.7-3.6l3.7-1.2l3.6,0.5l3.7-2.6l3.7-1l3.7-3.6l3.7-7.9
	l3.6-11.7l3.7-4.2l3.6-2.7l3.6-3.6l3.7-6.3l3.6-8.3l3.7-8.9l3.6-8.8l3.6-11.3l3.7-5l3.6-11.9l3.7-18.8l3.6-16.1l3.6-12.4l3.7,2.8
	l3.6,5l3.7,5.5l3.6-0.9l3.6,5l3.7,14.6l3.6,22.2l3.7,20.2l3.6,14.8l3.6,13.2l3.7,8.3l3.6-0.5l3.7-4.2l3.6-4.2l3.6-4l3.7-4.1l3.6-7.5
	l3.7-7.2l3.6-10.3l3.6-9.5l3.6-6.5l3.7-10.6l3.6-6.8l3.6,10.3l3.6,18.5l3.6,9.4l3.7-1.1l3.6,3.6l3.6,6.8l3.6,8.3l3.6,5.3l3.7,2.2
	l3.6-2.1l3.6-0.5l3.6-2.1l3.6-9.4l3.7-22.7l3.6-17.6l3.6-15.1l3.6-12.4l3.6-10.9l3.7-3.4l3.6,6.7l3.6,13.1l3.6,14.4l3.6,13l3.7,16.9
	l3.6,17.7l3.6,20.8l3.6,8.6l3.6,4.7l3.7,1.1l3.6,1.5l3.6-3.5l3.6-5.5l3.6-1.3l3.7-6.3l3.6-9.4l3.6-5.8l3.6-4.1l3.6-6.6l3.7-8.1
	l3.6-5.5l3.6,6.1l3.6,13.1l3.6,6.1l3.7-5.4l3.6,2.9l3.6,9.1l3.6,9l3.6,7.8l3.7,4.1l3.6-2.9l3.6-3.5l3.6-6.1l3.6-10.7l3.7-14.4
	l3.6-15.5l3.6-16.4l3.6-21.9l3.6-15.4l3.7-3.8l3.6,4.1l3.6,8.1l3.6,8.3l3.6,12.4l3.7,15.9l3.6,19.2l3.6,16.6l3.6,9.7l3.6,5.9
	l3.7-3.1l3.6-7.5l3.7-2.7l3.7-5.6l3.6-5.8l3.7-6.7l3.6-14.4l3.7-18.9l3.7-12.8l3.6,1.5l3.7,7.1l3.6,3.5l3.7-0.1l3.7-2.5l3.6,13.3
	l3.7,24.9l3.6,26.7l3.7,20.8l3.7,16.7l3.6,8.6l3.7,5.7l3.6,1.8l3.7,5l0.1,0.1"/>
<text transform="matrix(1 0 0 1 190.15 837.9229)" class="st0 st1">X-Y</text>
<text transform="matrix(1 0 0 1 259.65 837.9229)" class="st0 st1">A-C1</text>
<text transform="matrix(1 0 0 1 405.65 837.9229)" class="st0 st1">A-C2</text>
<text transform="matrix(1 0 0 1 338.15 837.9229)" class="st0 st1">B1</text>
<text transform="matrix(1 0 0 1 484.15 837.9229)" class="st0 st1">B2</text>
<text transform="matrix(1 0 0 1 557.15 837.9229)" class="st0 st1">Y2</text>
<line class="st8" x1="198.6" y1="839.5" x2="198.6" y2="636"/>
<line class="st9" x1="271.6" y1="839.5" x2="271.6" y2="636"/>
<line class="st9" x1="417.6" y1="839.5" x2="417.6" y2="636"/>
<line class="st10" x1="344.6" y1="839.5" x2="344.6" y2="636"/>
<line class="st10" x1="490.6" y1="839.5" x2="490.6" y2="636"/>
<line class="st11" x1="563.7" y1="839.5" x2="563.7" y2="636"/>
<path class="st16" d="M144,674.5V644H93.5v30.5H144z"/>
<text transform="matrix(1 0 0 1 130.5 656.5)" class="st0 st17">t1</text>
<line class="st13" x1="97.5" y1="652.5" x2="127.5" y2="652.5"/>
<text transform="matrix(1 0 0 1 130.5 670)" class="st0 st17">t2</text>
<line class="st15" x1="97.5" y1="666" x2="127.5" y2="666"/>
<path class="st18" d="M93.5,674.5V644H144v30.5H93.5z"/>
</svg>
